<svg width="21" height="21" viewBox="0 0 21 21" fill="none" xmlns="http://www.w3.org/2000/svg">
<path fill-rule="evenodd" clip-rule="evenodd" d="M10.4748 8.27786H12.3905V5.42072H15.264V3.51596H12.3905V0.658813H10.4748V3.51596H7.6012V5.42072H10.4748V8.27786ZM6.64374 16.8492C5.5901 16.8492 4.73761 17.7064 4.73761 18.754C4.73761 19.8016 5.5901 20.6588 6.64374 20.6588C7.69738 20.6588 8.55945 19.8016 8.55945 18.754C8.55945 17.7064 7.69738 16.8492 6.64374 16.8492ZM16.2221 16.8492C15.1685 16.8492 14.316 17.7064 14.316 18.754C14.316 19.8016 15.1685 20.6588 16.2221 20.6588C17.2757 20.6588 18.1378 19.8016 18.1378 18.754C18.1378 17.7064 17.2757 16.8492 16.2221 16.8492ZM6.80632 13.754L6.83506 13.6397L7.69713 12.0874H14.8331C15.5515 12.0874 16.1837 11.6969 16.5094 11.1064L20.2067 4.43022L18.54 3.51594H18.5305L17.4768 5.4207L14.8331 10.1826H8.109L7.98448 9.92546L5.83889 5.4207L4.92893 3.51594L4.02855 1.61118H0.896362V3.51594H2.81207L6.26035 10.7445L4.96724 13.0778C4.81399 13.3445 4.72778 13.6588 4.72778 13.9921C4.72778 15.0397 5.58985 15.8969 6.64349 15.8969H18.1377V13.9921H7.04579C6.92127 13.9921 6.80632 13.8874 6.80632 13.754Z" fill="white"/>
</svg>
