<svg width="60" height="17" viewBox="0 0 60 17" fill="none" xmlns="http://www.w3.org/2000/svg">
<path fill-rule="evenodd" clip-rule="evenodd" d="M41.8529 10.5518H43.5215V13.0462H41.257C40.522 13.0462 39.9063 12.9076 39.4097 12.6305C38.9131 12.3533 38.5555 11.997 38.3172 11.5416C38.0788 11.1061 37.9596 10.6508 37.9596 10.1756V5.99848V3.72183V1.72234L41.1974 0.871067V4.5929H43.5413V6.86955H41.2173V9.97767C41.1974 10.3538 41.4159 10.5518 41.8529 10.5518ZM33.3909 4.5731H36.6287V13.0462H33.3909V4.5731ZM33.3512 0H36.6089V2.47462H33.3512V0ZM29.5771 13.0462H26.3393V5.99848V3.72183V2.87056C26.3393 2.39543 26.4585 1.9401 26.6969 1.50457C26.9352 1.06904 27.2928 0.692894 27.7894 0.415736C28.286 0.138578 28.9017 0 29.6367 0H32.0005V2.49442H30.2326C29.7956 2.49442 29.5771 2.69239 29.5771 3.08833V4.5731H32.0005V6.84975H29.5771V13.0462ZM24.1742 11.9178C23.32 12.7492 22.1679 13.165 20.7576 13.165C19.3274 13.165 18.1753 12.7492 17.341 11.9178C17.0431 11.6406 16.8246 11.3239 16.6458 10.9873C16.467 10.6508 16.3479 10.2746 16.2883 9.83909C16.2088 9.40356 16.1889 8.86904 16.1889 8.19594C16.1889 7.54264 16.2287 6.98833 16.2883 6.5528C16.3677 6.11726 16.4869 5.74112 16.6458 5.40457C16.8246 5.06802 17.0431 4.75127 17.341 4.47411C17.7185 4.11777 18.1753 3.82081 18.7315 3.58325C19.2877 3.34569 19.9631 3.22691 20.7576 3.22691C21.5522 3.22691 22.2077 3.34569 22.7837 3.58325C23.3399 3.82081 23.8166 4.11777 24.194 4.47411C24.631 4.90965 24.929 5.40457 25.1078 5.93909C25.2667 6.4934 25.366 7.22589 25.366 8.17615C25.366 9.1264 25.2865 9.87869 25.1078 10.433C24.929 10.9873 24.6112 11.4822 24.1742 11.9178ZM22.009 6.88934C21.9494 6.57259 21.8302 6.35483 21.6316 6.17665C21.433 5.99848 21.1549 5.8995 20.7576 5.8995C20.3802 5.8995 20.0822 5.99848 19.8836 6.17665C19.685 6.35483 19.5658 6.61219 19.5062 6.92894C19.4466 7.24569 19.4069 7.68122 19.4069 8.19594C19.4069 8.71066 19.4466 9.1264 19.5062 9.44315C19.5658 9.75991 19.685 10.0173 19.8836 10.1954C20.0822 10.3736 20.3802 10.4726 20.7576 10.4726C21.135 10.4726 21.433 10.3736 21.6316 10.1954C21.8302 10.0173 21.9494 9.7797 22.009 9.48275C22.0686 9.18579 22.1083 8.75026 22.1083 8.17615C22.0885 7.62183 22.0686 7.1863 22.009 6.88934ZM13.8848 5.74112C13.4478 5.74112 13.2292 5.93909 13.2292 6.33503V13.0462H9.99146V6.96853V6.11726C9.99146 5.64213 10.1106 5.1868 10.349 4.75127C10.5874 4.31574 10.9449 3.9396 11.4415 3.66244C11.9381 3.38528 12.5539 3.2467 13.2888 3.2467H16.1492L15.5136 5.74112H13.8848ZM8.18386 11.5812C7.03176 12.8482 5.14471 13.1452 3.23779 13.0264V16.3721H0C0 16.3721 0 3.88021 0 3.2665C2.64188 3.2467 4.62825 3.2467 5.60157 3.2467C6.67422 3.2467 7.52836 3.54366 8.18386 4.11777C8.601 4.51371 8.87909 4.98884 8.99827 5.58275C9.11746 6.17665 9.17705 6.88934 9.17705 7.76041V8.21574V8.67107C9.17705 9.54214 9.11746 9.58173 8.99827 10.1558C8.87909 10.7102 8.56127 11.1655 8.18386 11.5812ZM4.96593 5.58275C4.5488 5.58275 3.85356 5.60254 3.41656 5.60254L3.21793 5.68173V10.6706C3.21793 10.6706 3.53575 10.6904 4.46934 10.6904C5.14471 10.6904 5.60157 10.334 5.83994 9.93808C6.0783 9.54214 6.21735 8.80965 6.21735 7.8594C6.21735 6.27564 5.95912 5.58275 4.96593 5.58275Z" transform="translate(0 0.627899)" fill="white"/>
<path d="M4.2707 5.82032C4.50906 5.68174 4.80702 5.60255 5.16456 5.60255C5.52211 5.60255 5.82007 5.68174 6.05843 5.82032C6.2968 5.9589 6.47557 6.13707 6.57489 6.35484C6.69407 6.5726 6.75367 6.82996 6.75367 7.10712H3.59533C3.59533 6.81017 3.65492 6.5726 3.77411 6.35484C3.87343 6.15687 4.03233 5.9589 4.2707 5.82032Z" transform="translate(44.8325 0.627899)" fill="white"/>
<path d="M14.4807 9.70051L9.67364 14.531C9.43528 14.7487 9.11746 14.8873 8.77978 14.8873C8.44209 14.8873 8.12426 14.7487 7.90576 14.531L6.43586 13.066C6.97218 13.0066 7.42904 12.9076 7.82631 12.7492C8.42222 12.5117 9.01814 12.1157 9.61405 11.5812L7.66741 9.81929C7.34959 10.0965 7.05163 10.2944 6.75367 10.433C6.45572 10.5518 6.01872 10.631 5.4824 10.631C4.90635 10.631 4.44948 10.4924 4.1118 10.1954C3.77412 9.89848 3.6152 9.54214 3.6152 9.1264H9.9716V7.8C9.9716 6.92894 9.79282 6.13706 9.41541 5.44417C9.038 4.75127 8.50169 4.19696 7.76673 3.80102C7.05163 3.38528 6.17763 3.18731 5.18444 3.18731C3.77411 3.18731 2.62201 3.62285 1.74801 4.49391C1.0925 5.14721 0.695233 5.97868 0.516459 7.00813C0.198639 6.5132 0 5.8599 0 5.34518V1.26701C0 0.574112 0.576046 0 1.25141 0H5.32348C6.01871 0 6.97217 0.395939 7.46877 0.890863L14.4807 7.89899C14.6992 8.13655 14.8382 8.45331 14.8382 8.78985C14.8382 9.1462 14.6992 9.46295 14.4807 9.70051Z" transform="translate(44.8325 0.627899)" fill="white"/>
<path d="M14.4807 9.70051L9.67364 14.531C9.43528 14.7487 9.11746 14.8873 8.77978 14.8873C8.44209 14.8873 8.12426 14.7487 7.90576 14.531L6.43586 13.066C6.97218 13.0066 7.42904 12.9076 7.82631 12.7492C8.42222 12.5117 9.01814 12.1157 9.61405 11.5812L7.66741 9.81929C7.34959 10.0965 7.05163 10.2944 6.75367 10.433C6.45572 10.5518 6.01872 10.631 5.4824 10.631C4.90635 10.631 4.44948 10.4924 4.1118 10.1954C3.77412 9.89848 3.6152 9.54214 3.6152 9.1264H9.9716V7.8C9.9716 6.92894 9.79282 6.13706 9.41541 5.44417C9.038 4.75127 8.50169 4.19696 7.76673 3.80102C7.05163 3.38528 6.17763 3.18731 5.18444 3.18731C3.77411 3.18731 2.62201 3.62285 1.74801 4.49391C1.0925 5.14721 0.695233 5.97868 0.516459 7.00813C0.198639 6.5132 0 5.8599 0 5.34518V1.26701C0 0.574112 0.576046 0 1.25141 0H5.32348C6.01871 0 6.97217 0.395939 7.46877 0.890863L14.4807 7.89899C14.6992 8.13655 14.8382 8.45331 14.8382 8.78985C14.8382 9.1462 14.6992 9.46295 14.4807 9.70051Z" transform="translate(44.8325 0.627899)" fill="white"/>
</svg>