<svg width="49" height="18" viewBox="0 0 49 18" fill="none" xmlns="http://www.w3.org/2000/svg">
<path d="M34.9396 6.40883H33.2103V12.2549C33.2103 12.3644 33.1151 12.4581 33.004 12.4581H31.6713C31.5603 12.4581 31.4651 12.3644 31.4651 12.2549V6.40883H29.7199C29.6723 6.40883 29.6088 6.3932 29.5771 6.36194C29.5454 6.33068 29.5136 6.28378 29.5136 6.22126V5.18959C29.5136 5.1427 29.5295 5.08017 29.5771 5.04891C29.6088 5.01765 29.6723 4.98638 29.7199 5.00202H34.9396C35.0506 5.00202 35.1458 5.08017 35.1458 5.18959V6.22126C35.1458 6.33068 35.0506 6.40883 34.9396 6.40883Z" transform="translate(0.127319 0.883698)" fill="white"/>
<path d="M40.4924 12.4113C39.8102 12.5051 39.1121 12.5519 38.4299 12.5363C37.1131 12.5363 35.9549 12.2081 35.9549 10.3792V7.04973C35.9549 5.22086 37.129 4.90824 38.4458 4.90824C39.128 4.89261 39.8102 4.9395 40.4924 5.03329C40.6352 5.04892 40.6987 5.11144 40.6987 5.2365V6.17437C40.6987 6.28379 40.6035 6.37758 40.4924 6.37758H38.3506C37.8746 6.37758 37.7001 6.53389 37.7001 7.06536V7.97197H40.4131C40.5241 7.97197 40.6193 8.06576 40.6193 8.17518V9.12869C40.6193 9.23811 40.5241 9.3319 40.4131 9.3319H37.7001V10.3948C37.7001 10.9107 37.8746 11.0826 38.3506 11.0826H40.4924C40.6035 11.0826 40.6987 11.1764 40.6987 11.2858V12.2237C40.6987 12.3331 40.6352 12.3956 40.4924 12.4113Z" transform="translate(0.127319 0.883698)" fill="white"/>
<path d="M48.1712 12.4582H46.5529C46.4419 12.4738 46.3308 12.4113 46.2832 12.3018L44.8712 10.1135L43.602 12.2549C43.5385 12.38 43.4592 12.4582 43.3482 12.4582H41.841C41.8092 12.4582 41.7616 12.4582 41.7299 12.4269C41.6982 12.3956 41.6823 12.3644 41.6823 12.3175C41.6823 12.2862 41.6982 12.2706 41.6982 12.2549L43.9034 8.62849L41.6664 5.1896C41.6506 5.17397 41.6506 5.14271 41.6506 5.12707C41.6506 5.04892 41.7299 4.98639 41.8092 5.00202H43.4751C43.5861 5.00202 43.6655 5.09581 43.7289 5.1896L45.0299 7.22167L46.2991 5.1896C46.3467 5.08018 46.4419 5.01766 46.5529 5.00202H48.0601C48.1395 5.00202 48.2188 5.04892 48.2188 5.12707C48.2188 5.14271 48.2029 5.17397 48.2029 5.1896L45.9818 8.65975L48.2981 12.2549C48.314 12.2862 48.3299 12.3175 48.3299 12.3487C48.314 12.4113 48.2664 12.4582 48.1712 12.4582Z" transform="translate(0.127319 0.883698)" fill="white"/>
<path d="M27.0704 5.01766C26.9911 5.01766 26.9276 5.06456 26.9117 5.14271L25.4363 10.5355C25.4204 10.6449 25.3887 10.6918 25.2935 10.6918C25.1983 10.6918 25.1665 10.6449 25.1507 10.5355L23.6752 5.14271C23.6593 5.06456 23.5959 5.01766 23.5166 5.01766H22.057C22.0094 5.01766 21.9618 5.0333 21.93 5.08019C21.8983 5.11145 21.8824 5.15835 21.8983 5.20524C21.8983 5.20524 23.7069 11.3952 23.7228 11.4578C23.9608 12.1924 24.5478 12.552 25.2935 12.552C26.0074 12.5832 26.6579 12.1299 26.8641 11.4578C26.8959 11.3796 28.6569 5.20524 28.6569 5.20524C28.6728 5.15835 28.6569 5.11145 28.6252 5.08019C28.5934 5.04893 28.5459 5.01766 28.4983 5.01766H27.0704Z" transform="translate(0.127319 0.883698)" fill="white"/>
<path d="M18.8204 0H3.63738C3.0821 0 2.57441 0.296995 2.3047 0.750302C2.01913 1.21924 2.00326 1.7976 2.25711 2.26654L3.78017 5.11144H1.01961C0.670579 5.11144 0.337408 5.28338 0.147025 5.58038C-0.0433586 5.87737 -0.0433587 6.25252 0.115294 6.56515L5.0018 15.6626C5.17631 15.9908 5.52535 16.194 5.89025 16.194C6.25515 16.194 6.60419 15.9908 6.77871 15.6626L8.11139 13.1928L9.77724 16.3034C10.047 16.8037 10.5864 17.1163 11.1575 17.1163C11.7287 17.1163 12.2681 16.8037 12.5378 16.3034L20.1531 2.18838C20.407 1.71944 20.3911 1.15672 20.1055 0.71904C19.8517 0.265732 19.3599 0 18.8204 0ZM12.0301 5.95553L8.69841 12.1143C8.58735 12.3331 8.36523 12.4581 8.11139 12.4581C7.85755 12.4581 7.63543 12.3175 7.52438 12.1143L4.24026 6.01805C4.14507 5.83048 4.14507 5.61164 4.25613 5.42406C4.36719 5.23649 4.57343 5.12707 4.77968 5.12707H11.5066C11.7128 5.12707 11.9032 5.22086 11.9984 5.3928C12.1253 5.56474 12.1253 5.78358 12.0301 5.95553Z" transform="translate(0.127319 0.883698)" fill="white"/>
</svg>