<svg style="position: absolute; width: 0; height: 0; overflow: hidden;" version="1.1" xmlns="http://www.w3.org/2000/svg" xmlns:xlink="http://www.w3.org/1999/xlink">
<defs>
<symbol id="icon-star-full" viewBox="0 0 34 32">
<title>star-full</title>
<path class="path1" fill="#f8c434" d="M16.752 1.297l4.771 9.647 10.684 1.556-7.728 7.572 1.815 10.632-9.543-5.031-9.543 5.031 1.815-10.632-7.728-7.572 10.684-1.556z"></path>
<path class="path2" fill="#bcbec0" d="M26.295 32c-0.207 0-0.415-0.052-0.622-0.156l-8.921-4.72-8.972 4.72c-0.415 0.207-0.985 0.207-1.348-0.104-0.415-0.311-0.622-0.778-0.519-1.245l1.712-9.958-7.261-7.053c-0.363-0.363-0.467-0.882-0.311-1.348s0.571-0.83 1.037-0.882l10.010-1.452 4.46-9.076c0.259-0.467 0.674-0.726 1.193-0.726s0.934 0.259 1.141 0.726l4.46 9.076 10.010 1.452c0.467 0.052 0.882 0.415 1.037 0.882s0 0.985-0.311 1.348l-7.261 7.053 1.712 9.958c0.104 0.467-0.104 0.985-0.519 1.245-0.207 0.156-0.467 0.259-0.726 0.259zM16.752 24.376c0.207 0 0.415 0.052 0.622 0.156l7.209 3.786-1.4-8.039c-0.052-0.415 0.052-0.83 0.363-1.141l5.861-5.705-8.091-1.193c-0.415-0.052-0.778-0.311-0.985-0.726l-3.63-7.313-3.63 7.313c-0.207 0.363-0.571 0.622-0.985 0.726l-7.987 1.193 5.861 5.705c0.311 0.311 0.467 0.726 0.363 1.141l-1.4 8.039 7.209-3.786c0.207-0.104 0.415-0.156 0.622-0.156z"></path>
</symbol>
<symbol id="icon-star" viewBox="0 0 34 32">
<title>star</title>
<path class="path1" fill="#fff" d="M16.752 1.297l4.771 9.647 10.684 1.556-7.728 7.572 1.815 10.632-9.543-5.031-9.543 5.031 1.815-10.632-7.728-7.572 10.684-1.556z"></path>
<path class="path2" fill="#bcbec0" d="M26.295 32c-0.207 0-0.415-0.052-0.622-0.156l-8.921-4.72-8.972 4.72c-0.415 0.207-0.985 0.207-1.348-0.104-0.415-0.311-0.622-0.778-0.519-1.245l1.712-9.958-7.261-7.053c-0.363-0.363-0.467-0.882-0.311-1.348s0.571-0.83 1.037-0.882l10.010-1.452 4.46-9.076c0.259-0.467 0.674-0.726 1.193-0.726s0.934 0.259 1.141 0.726l4.46 9.076 10.010 1.452c0.467 0.052 0.882 0.415 1.037 0.882s0 0.985-0.311 1.348l-7.261 7.053 1.712 9.958c0.104 0.467-0.104 0.985-0.519 1.245-0.207 0.156-0.467 0.259-0.726 0.259zM16.752 24.376c0.207 0 0.415 0.052 0.622 0.156l7.209 3.786-1.4-8.039c-0.052-0.415 0.052-0.83 0.363-1.141l5.861-5.705-8.091-1.193c-0.415-0.052-0.778-0.311-0.985-0.726l-3.63-7.313-3.63 7.313c-0.207 0.363-0.571 0.622-0.985 0.726l-7.987 1.193 5.861 5.705c0.311 0.311 0.467 0.726 0.363 1.141l-1.4 8.039 7.209-3.786c0.207-0.104 0.415-0.156 0.622-0.156z"></path>
</symbol>
<symbol id="icon-cart" viewBox="0 0 38 32">
<title>cart</title>
<path class="path1" d="M32.5 23.786h-25.143c-0.857 0-1.571-0.714-1.571-1.571v-14.857c0-0.857 0.714-1.571 1.571-1.571h29.357c0.5 0 1 0.214 1.286 0.643s0.429 0.929 0.286 1.429l-4.214 14.786c-0.286 0.643-0.857 1.143-1.571 1.143zM8.929 20.571h22.357l3.357-11.571h-25.714v11.571z"></path>
<path class="path2" d="M7.357 9.143c-0.429 0-0.929-0.143-1.286-0.5l-5.571-5.571c-0.714-0.714-0.714-1.857 0-2.5 0.714-0.714 1.857-0.714 2.5 0l5.571 5.5c0.714 0.714 0.714 1.857 0 2.5-0.357 0.429-0.786 0.571-1.214 0.571z"></path>
<path class="path3" d="M32.5 16.214h-25.143c-0.786 0-1.429-0.643-1.429-1.429s0.643-1.429 1.429-1.429h25.143c0.786 0 1.429 0.643 1.429 1.429s-0.643 1.429-1.429 1.429z"></path>
<path class="path4" d="M9.857 32c-2.714 0-4.857-2.214-4.857-4.857 0-2.714 2.214-4.857 4.857-4.857 2.714 0 4.857 2.214 4.857 4.857 0.071 2.643-2.143 4.857-4.857 4.857zM9.857 25.071c-1.143 0-2 0.929-2 2 0 1.143 0.929 2 2 2 1.143 0 2-0.929 2-2 0.071-1.071-0.857-2-2-2z"></path>
<path class="path5" d="M29.357 32c-2.714 0-4.857-2.214-4.857-4.857 0-2.714 2.214-4.857 4.857-4.857 2.714 0 4.857 2.214 4.857 4.857 0.071 2.643-2.143 4.857-4.857 4.857zM29.357 25.071c-1.143 0-2 0.929-2 2 0 1.143 0.929 2 2 2 1.143 0 2-0.929 2-2 0.071-1.071-0.857-2-2-2z"></path>
<path class="path6" d="M16.214 22.857c-0.786 0-1.429-0.643-1.429-1.429v-14.071c0-0.786 0.643-1.429 1.429-1.429s1.429 0.643 1.429 1.429v14.071c0 0.786-0.643 1.429-1.429 1.429z"></path>
<path class="path7" d="M25.571 22.857c-0.786 0-1.429-0.643-1.429-1.429v-14.071c0-0.786 0.643-1.429 1.429-1.429s1.429 0.643 1.429 1.429v14.071c0 0.786-0.643 1.429-1.429 1.429z"></path>
</symbol>
<symbol id="icon-email" viewBox="0 0 41 32">
<title>email</title>
<path class="path1" d="M36.155 0h-31.116c-2.74 0-5.039 2.298-5.039 5.039v21.923c0 2.829 2.298 5.039 5.039 5.039h31.116c2.74 0 5.039-2.298 5.039-5.039v-21.923c0-2.74-2.21-5.039-5.039-5.039zM20.597 16.619l-12.553-12.199h25.193l-12.641 12.199zM13.878 16.265l-9.459 8.751v-17.945l9.459 9.193zM17.061 19.359l2.033 1.945c0.442 0.442 0.972 0.619 1.503 0.619s1.149-0.177 1.503-0.619l2.033-1.945 8.928 8.221h-24.928l8.928-8.221zM27.403 16.265l9.37-9.193v17.856l-9.37-8.663z"></path>
</symbol>
<symbol id="icon-search" viewBox="0 0 32 32">
<title>search</title>
<path class="path1" d="M28.265 3.808c-2.49-2.49-5.712-3.808-9.153-3.808s-6.664 1.318-9.153 3.808c-4.54 4.54-4.906 11.57-1.318 16.622-0.513 0.073-1.025 0.293-1.391 0.732l-6.517 6.517c-1.025 1.025-1.025 2.636 0 3.588 0.513 0.513 1.172 0.732 1.831 0.732s1.318-0.22 1.831-0.732l6.517-6.517c0.366-0.366 0.659-0.879 0.732-1.391 2.197 1.611 4.76 2.416 7.542 2.416 3.442 0 6.664-1.318 9.153-3.808 4.906-4.979 4.906-13.181-0.073-18.16zM25.117 18.892c-1.611 1.611-3.735 2.49-6.005 2.49s-4.394-0.879-6.005-2.49c-3.295-3.295-3.295-8.714 0-12.009 1.611-1.611 3.735-2.49 6.005-2.49s4.394 0.879 6.005 2.49c3.368 3.295 3.368 8.714 0 12.009z"></path>
</symbol>
<symbol id="icon-talk-with-us" viewBox="0 0 32 32">
<title>talk-with-us</title>
<path class="path1" d="M15.934 0c-8.757 0-15.934 5.86-15.934 13.103 0 5.926 4.741 10.996 11.588 12.642l3.358 6.255 5.86-6.387c0.198-0.066 0.395-0.066 0.527-0.132 6.321-1.844 10.535-6.848 10.535-12.379 0.066-7.243-7.111-13.103-15.934-13.103zM20.412 22.321c-0.263 0.066-0.593 0.132-0.856 0.198l-0.461 0.132-3.424 3.687-1.909-3.556-0.79-0.132c-5.728-1.053-9.679-5.004-9.679-9.547 0-5.399 5.663-9.811 12.642-9.811s12.642 4.412 12.642 9.811c0.066 4.082-3.226 7.77-8.165 9.218z"></path>
<path class="path2" d="M11.786 13.366c0 1.345-1.091 2.436-2.436 2.436s-2.436-1.091-2.436-2.436c0-1.345 1.091-2.436 2.436-2.436s2.436 1.091 2.436 2.436z"></path>
<path class="path3" d="M18.37 13.366c0 1.345-1.091 2.436-2.436 2.436s-2.436-1.091-2.436-2.436c0-1.345 1.091-2.436 2.436-2.436s2.436 1.091 2.436 2.436z"></path>
<path class="path4" d="M25.021 13.366c0 1.345-1.091 2.436-2.436 2.436s-2.436-1.091-2.436-2.436c0-1.345 1.091-2.436 2.436-2.436s2.436 1.091 2.436 2.436z"></path>
</symbol>
</defs>
</svg>
