<svg width="18" height="19" viewBox="0 0 18 19" fill="none" xmlns="http://www.w3.org/2000/svg">
<path fill-rule="evenodd" clip-rule="evenodd" d="M9.05135 7.23858H10.7656V4.66569H13.3371V2.95043H10.7656V0.377548H9.05135V2.95043H6.47992V4.66569H9.05135V7.23858ZM5.62295 14.9572C4.68009 14.9572 3.91724 15.7291 3.91724 16.6725C3.91724 17.6159 4.68009 18.3878 5.62295 18.3878C6.56581 18.3878 7.33724 17.6159 7.33724 16.6725C7.33724 15.7291 6.56581 14.9572 5.62295 14.9572ZM14.1942 14.9572C13.2514 14.9572 12.4885 15.7291 12.4885 16.6725C12.4885 17.6159 13.2514 18.3878 14.1942 18.3878C15.1371 18.3878 15.9085 17.6159 15.9085 16.6725C15.9085 15.7291 15.1371 14.9572 14.1942 14.9572ZM5.76855 12.1699L5.79427 12.067L6.56569 10.6691H12.9514C13.5943 10.6691 14.16 10.3175 14.4514 9.78573L17.76 3.77376L16.2685 2.95043H16.26L15.3171 4.66569L12.9514 8.95383H6.93427L6.82284 8.72227L4.90284 4.66569L4.08855 2.95043L3.28284 1.23518H0.47998V2.95043H2.19427L5.27998 9.45984L4.12284 11.561C3.98569 11.8012 3.90855 12.0842 3.90855 12.3843C3.90855 13.3277 4.67998 14.0996 5.62284 14.0996H15.9085V12.3843H5.98284C5.87141 12.3843 5.76855 12.29 5.76855 12.1699Z" fill="white"/>
</svg>
