<svg width="134" height="35" viewBox="0 0 134 35" fill="none" xmlns="http://www.w3.org/2000/svg">
<path d="M4.07104 10.159C3.55509 10.159 3.08508 10.0742 2.66102 9.90459C2.23695 9.73496 1.87296 9.48759 1.56904 9.16247C1.26513 8.83735 1.02836 8.43802 0.858734 7.96448C0.696175 7.48387 0.614896 6.93612 0.614896 6.32123C0.614896 5.70633 0.706777 5.16211 0.890539 4.68857C1.08137 4.20796 1.33581 3.8051 1.65386 3.47998C1.97191 3.15487 2.34297 2.90749 2.76703 2.73787C3.1911 2.56824 3.64344 2.48343 4.12404 2.48343C4.42796 2.48343 4.70007 2.50463 4.94037 2.54704C5.18774 2.58944 5.39978 2.63892 5.57647 2.69546C5.76023 2.752 5.90866 2.80854 6.02174 2.86509C6.13482 2.92163 6.21257 2.96404 6.25498 2.99231L5.95813 3.84044C5.89452 3.79803 5.80264 3.75209 5.68249 3.70262C5.56233 3.65314 5.42451 3.60367 5.26902 3.55419C5.1206 3.50472 4.95451 3.46585 4.77074 3.43758C4.59405 3.40224 4.41382 3.38457 4.23006 3.38457C3.84133 3.38457 3.49148 3.45171 3.1805 3.586C2.86951 3.72029 2.60447 3.91465 2.38537 4.16909C2.16627 4.42353 1.99664 4.73451 1.87649 5.10204C1.76341 5.46249 1.70687 5.86889 1.70687 6.32123C1.70687 6.75943 1.75634 7.15876 1.85529 7.51921C1.96131 7.87967 2.1168 8.19065 2.32176 8.45216C2.52673 8.7066 2.78117 8.9045 3.08508 9.04585C3.39606 9.18721 3.75652 9.25788 4.16645 9.25788C4.63999 9.25788 5.03225 9.20841 5.34323 9.10946C5.65422 9.01051 5.88745 8.92217 6.04294 8.84442L6.30798 9.69255C6.25851 9.72789 6.17016 9.77383 6.04294 9.83037C5.91572 9.87985 5.7567 9.92932 5.56587 9.9788C5.37504 10.0283 5.1524 10.0707 4.89796 10.106C4.64352 10.1414 4.36788 10.159 4.07104 10.159ZM9.45792 4.37052C9.54273 4.37052 9.63815 4.37759 9.74416 4.39173C9.85725 4.39879 9.9668 4.41293 10.0728 4.43413C10.1788 4.44827 10.2742 4.46594 10.3591 4.48714C10.4509 4.50128 10.5181 4.51541 10.5605 4.52955L10.3909 5.38828C10.3131 5.36001 10.1824 5.3282 9.9986 5.29287C9.82191 5.25046 9.59221 5.22926 9.30949 5.22926C9.12573 5.22926 8.94197 5.25046 8.75821 5.29287C8.58151 5.3282 8.4649 5.35294 8.40835 5.36708V10H7.4224V4.72038C7.65564 4.63556 7.94542 4.55782 8.29174 4.48714C8.63806 4.40939 9.02678 4.37052 9.45792 4.37052ZM11.2045 7.25417C11.2045 6.7665 11.2751 6.34243 11.4165 5.98197C11.5578 5.61445 11.7451 5.31053 11.9784 5.07023C12.2116 4.82993 12.4802 4.6497 12.7841 4.52955C13.088 4.40939 13.399 4.34932 13.717 4.34932C14.4592 4.34932 15.0281 4.58256 15.4239 5.04903C15.8197 5.50843 16.0176 6.21168 16.0176 7.15876C16.0176 7.20116 16.0176 7.25771 16.0176 7.32838C16.0176 7.39199 16.0141 7.45207 16.007 7.50861H12.2328C12.2752 8.0811 12.4413 8.51577 12.7311 8.81261C13.0209 9.10946 13.4732 9.25788 14.0881 9.25788C14.4344 9.25788 14.7242 9.22961 14.9574 9.17307C15.1977 9.10946 15.378 9.04939 15.4981 8.99284L15.6359 9.81977C15.5158 9.88338 15.3038 9.95053 14.9998 10.0212C14.703 10.0919 14.3637 10.1272 13.9821 10.1272C13.5015 10.1272 13.0845 10.0565 12.7311 9.91519C12.3848 9.76676 12.0985 9.56533 11.8724 9.31089C11.6462 9.05645 11.4766 8.75607 11.3635 8.40975C11.2575 8.05636 11.2045 7.67117 11.2045 7.25417ZM14.9892 6.71349C14.9963 6.26822 14.8832 5.90423 14.65 5.62152C14.4238 5.33174 14.1093 5.18685 13.7064 5.18685C13.4803 5.18685 13.2788 5.23279 13.1022 5.32467C12.9325 5.40948 12.7876 5.52257 12.6675 5.66392C12.5473 5.80528 12.4519 5.96784 12.3812 6.1516C12.3176 6.33536 12.2752 6.52266 12.254 6.71349H14.9892ZM19.2998 9.28969C19.5331 9.28969 19.738 9.28616 19.9147 9.27909C20.0985 9.26495 20.2504 9.24375 20.3706 9.21548V7.57222C20.2999 7.53688 20.1833 7.50861 20.0207 7.48741C19.8652 7.45914 19.6744 7.445 19.4482 7.445C19.2998 7.445 19.1408 7.4556 18.9712 7.47681C18.8086 7.49801 18.6566 7.54395 18.5153 7.61463C18.381 7.67824 18.2679 7.77012 18.176 7.89027C18.0842 8.00336 18.0382 8.15531 18.0382 8.34614C18.0382 8.69953 18.1513 8.9469 18.3775 9.08826C18.6036 9.22255 18.9111 9.28969 19.2998 9.28969ZM19.215 4.34932C19.6108 4.34932 19.943 4.40233 20.2116 4.50834C20.4872 4.60729 20.7063 4.75218 20.8689 4.94301C21.0385 5.12677 21.1586 5.34941 21.2293 5.61092C21.3 5.86536 21.3353 6.14807 21.3353 6.45905V9.90459C21.2505 9.91872 21.1304 9.93992 20.9749 9.9682C20.8265 9.9894 20.6568 10.0106 20.466 10.0318C20.2752 10.053 20.0667 10.0707 19.8405 10.0848C19.6214 10.106 19.4023 10.1166 19.1832 10.1166C18.8722 10.1166 18.586 10.0848 18.3245 10.0212C18.063 9.95759 17.8368 9.85864 17.646 9.72436C17.4551 9.583 17.3067 9.39924 17.2007 9.17307C17.0947 8.9469 17.0417 8.67479 17.0417 8.35674C17.0417 8.05283 17.1017 7.79132 17.2219 7.57222C17.3491 7.35312 17.5187 7.17643 17.7308 7.04214C17.9428 6.90785 18.1902 6.8089 18.4729 6.74529C18.7556 6.68168 19.0524 6.64988 19.3634 6.64988C19.4624 6.64988 19.5649 6.65695 19.6709 6.67108C19.7769 6.67815 19.8758 6.69228 19.9677 6.71349C20.0667 6.72762 20.1515 6.74176 20.2222 6.75589C20.2928 6.77003 20.3423 6.78063 20.3706 6.7877V6.51206C20.3706 6.3495 20.3529 6.19047 20.3176 6.03498C20.2822 5.87242 20.2186 5.73107 20.1267 5.61092C20.0349 5.4837 19.9076 5.38475 19.7451 5.31407C19.5896 5.23632 19.3846 5.19745 19.1302 5.19745C18.8051 5.19745 18.5188 5.22219 18.2715 5.27166C18.0311 5.31407 17.8509 5.36001 17.7308 5.40948L17.6142 4.59316C17.7414 4.53661 17.9534 4.48361 18.2503 4.43413C18.5471 4.37759 18.8687 4.34932 19.215 4.34932ZM23.8952 4.48714H25.9837V5.31407H23.8952V7.85847C23.8952 8.13411 23.9164 8.36381 23.9588 8.54757C24.0012 8.72427 24.0648 8.86562 24.1497 8.97164C24.2345 9.07059 24.3405 9.14127 24.4677 9.18367C24.5949 9.22608 24.7433 9.24728 24.913 9.24728C25.2098 9.24728 25.4466 9.21548 25.6233 9.15187C25.807 9.08119 25.9343 9.03172 26.0049 9.00344L26.1958 9.81977C26.0968 9.86925 25.9237 9.92932 25.6763 10C25.4289 10.0777 25.1462 10.1166 24.8282 10.1166C24.4536 10.1166 24.1426 10.0707 23.8952 9.9788C23.6549 9.87985 23.4605 9.73496 23.3121 9.54413C23.1637 9.3533 23.0577 9.12006 22.9941 8.84442C22.9375 8.56171 22.9093 8.23659 22.9093 7.86907V2.9499L23.8952 2.78027V4.48714ZM26.8274 7.25417C26.8274 6.7665 26.8981 6.34243 27.0394 5.98197C27.1808 5.61445 27.3681 5.31053 27.6013 5.07023C27.8346 4.82993 28.1031 4.6497 28.407 4.52955C28.711 4.40939 29.0219 4.34932 29.34 4.34932C30.0821 4.34932 30.6511 4.58256 31.0469 5.04903C31.4427 5.50843 31.6406 6.21168 31.6406 7.15876C31.6406 7.20116 31.6406 7.25771 31.6406 7.32838C31.6406 7.39199 31.637 7.45207 31.63 7.50861H27.8558C27.8982 8.0811 28.0643 8.51577 28.354 8.81261C28.6438 9.10946 29.0962 9.25788 29.7111 9.25788C30.0574 9.25788 30.3472 9.22961 30.5804 9.17307C30.8207 9.10946 31.0009 9.04939 31.1211 8.99284L31.2589 9.81977C31.1387 9.88338 30.9267 9.95053 30.6228 10.0212C30.3259 10.0919 29.9867 10.1272 29.605 10.1272C29.1244 10.1272 28.7074 10.0565 28.354 9.91519C28.0077 9.76676 27.7215 9.56533 27.4953 9.31089C27.2691 9.05645 27.0995 8.75607 26.9864 8.40975C26.8804 8.05636 26.8274 7.67117 26.8274 7.25417ZM30.6122 6.71349C30.6193 6.26822 30.5062 5.90423 30.2729 5.62152C30.0468 5.33174 29.7323 5.18685 29.3294 5.18685C29.1032 5.18685 28.9018 5.23279 28.7251 5.32467C28.5555 5.40948 28.4106 5.52257 28.2904 5.66392C28.1703 5.80528 28.0749 5.96784 28.0042 6.1516C27.9406 6.33536 27.8982 6.52266 27.877 6.71349H30.6122ZM36.619 5.65332C36.4989 5.55437 36.3257 5.45896 36.0995 5.36708C35.8734 5.2752 35.626 5.22926 35.3574 5.22926C35.0747 5.22926 34.8309 5.28226 34.6259 5.38828C34.428 5.48723 34.2655 5.62858 34.1382 5.81235C34.011 5.98904 33.9191 6.20107 33.8626 6.44845C33.8061 6.69582 33.7778 6.96086 33.7778 7.24357C33.7778 7.88674 33.9368 8.38501 34.2549 8.7384C34.5729 9.08472 34.997 9.25788 35.5271 9.25788C35.7956 9.25788 36.0183 9.24728 36.195 9.22608C36.3787 9.19781 36.5201 9.16954 36.619 9.14127V5.65332ZM36.619 1.94274L37.605 1.77312V9.84098C37.3788 9.90459 37.089 9.9682 36.7356 10.0318C36.3823 10.0954 35.9759 10.1272 35.5165 10.1272C35.0924 10.1272 34.7107 10.0601 34.3715 9.92579C34.0322 9.7915 33.7424 9.60067 33.5021 9.3533C33.2618 9.10593 33.0745 8.80555 32.9403 8.45216C32.813 8.0917 32.7494 7.68884 32.7494 7.24357C32.7494 6.8195 32.8024 6.43078 32.9084 6.07739C33.0215 5.724 33.1841 5.42009 33.3961 5.16565C33.6082 4.91121 33.8661 4.71331 34.17 4.57195C34.481 4.4306 34.8344 4.35992 35.2302 4.35992C35.5483 4.35992 35.8274 4.40233 36.0677 4.48714C36.3151 4.57195 36.4989 4.65323 36.619 4.73098V1.94274ZM42.7395 4.73098C42.8596 4.65323 43.0399 4.57195 43.2802 4.48714C43.5275 4.40233 43.8103 4.35992 44.1283 4.35992C44.5241 4.35992 44.874 4.4306 45.1779 4.57195C45.4889 4.71331 45.7504 4.91121 45.9624 5.16565C46.1744 5.42009 46.3335 5.724 46.4395 6.07739C46.5526 6.43078 46.6091 6.8195 46.6091 7.24357C46.6091 7.68884 46.5419 8.0917 46.4077 8.45216C46.2804 8.80555 46.0967 9.10593 45.8564 9.3533C45.6161 9.60067 45.3263 9.7915 44.987 9.92579C44.6478 10.0601 44.2661 10.1272 43.8421 10.1272C43.3827 10.1272 42.9763 10.0954 42.6229 10.0318C42.2695 9.9682 41.9797 9.90459 41.7535 9.84098V1.94274L42.7395 1.77312V4.73098ZM42.7395 9.14127C42.8384 9.16954 42.9763 9.19781 43.153 9.22608C43.3367 9.24728 43.5629 9.25788 43.8315 9.25788C44.3615 9.25788 44.7856 9.08472 45.1037 8.7384C45.4217 8.38501 45.5807 7.88674 45.5807 7.24357C45.5807 6.96086 45.5525 6.69582 45.4959 6.44845C45.4394 6.20107 45.3475 5.98904 45.2203 5.81235C45.0931 5.62858 44.927 5.48723 44.722 5.38828C44.5241 5.28226 44.2838 5.22926 44.0011 5.22926C43.7325 5.22926 43.4851 5.2752 43.259 5.36708C43.0328 5.45896 42.8596 5.55437 42.7395 5.65332V9.14127ZM47.2152 11.0284C47.293 11.0637 47.3919 11.0955 47.5121 11.1238C47.6393 11.1591 47.763 11.1768 47.8831 11.1768C48.2718 11.1768 48.5758 11.0884 48.7949 10.9117C49.014 10.7421 49.2119 10.4629 49.3885 10.0742C48.9433 9.22608 48.5263 8.32847 48.1376 7.38139C47.7559 6.42724 47.4378 5.46249 47.1834 4.48714H48.2436C48.3213 4.80519 48.4132 5.14798 48.5192 5.5155C48.6323 5.88302 48.756 6.26115 48.8903 6.64988C49.0246 7.0386 49.1694 7.42733 49.3249 7.81606C49.4804 8.20479 49.643 8.57938 49.8126 8.93983C50.0812 8.19772 50.3144 7.46267 50.5123 6.73469C50.7102 6.00671 50.8975 5.25753 51.0742 4.48714H52.092C51.8375 5.5261 51.5548 6.52619 51.2438 7.48741C50.9329 8.44156 50.5971 9.33563 50.2367 10.1696C50.0953 10.4877 49.9469 10.7598 49.7914 10.986C49.643 11.2192 49.4769 11.41 49.2931 11.5584C49.1094 11.7069 48.9009 11.8164 48.6676 11.8871C48.4415 11.9578 48.1835 11.9931 47.8937 11.9931C47.816 11.9931 47.7347 11.986 47.6499 11.9719C47.5651 11.9648 47.4803 11.9507 47.3954 11.9295C47.3177 11.9154 47.2435 11.8977 47.1728 11.8765C47.1092 11.8553 47.0633 11.8376 47.035 11.8235L47.2152 11.0284Z" fill="white"/>
<path fill-rule="evenodd" clip-rule="evenodd" d="M45.2744 28.634H47.0794V31.3623H44.6298C43.8347 31.3623 43.1686 31.2107 42.6314 30.9076C42.0942 30.6044 41.7075 30.2147 41.4496 29.7167C41.1918 29.2403 41.0628 28.7423 41.0628 28.2226V23.6539V21.1638V18.9768L44.5653 18.0457V22.1165H47.1008V24.6066H44.5868V28.0061C44.5653 28.4175 44.8017 28.634 45.2744 28.634ZM36.1207 22.0948H39.6232V31.3623H36.1207V22.0948ZM36.0777 17.093H39.6017V19.7996H36.0777V17.093ZM31.9951 31.3623H28.4926V23.6539V21.1638V20.2327C28.4926 19.713 28.6215 19.215 28.8794 18.7386C29.1372 18.2623 29.524 17.8509 30.0612 17.5477C30.5984 17.2446 31.2645 17.093 32.0595 17.093H34.6165V19.8213H32.7041C32.2314 19.8213 31.9951 20.0378 31.9951 20.4709V22.0948H34.6165V24.5849H31.9951V31.3623ZM26.1504 30.1281C25.2265 31.0375 23.9802 31.4922 22.4546 31.4922C20.9074 31.4922 19.6612 31.0375 18.7587 30.1281C18.4364 29.8249 18.2 29.4785 18.0066 29.1104C17.8132 28.7423 17.6843 28.3309 17.6198 27.8545C17.5339 27.3782 17.5124 26.7935 17.5124 26.0573C17.5124 25.3428 17.5554 24.7365 17.6198 24.2601C17.7058 23.7838 17.8347 23.3724 18.0066 23.0043C18.2 22.6362 18.4364 22.2897 18.7587 21.9866C19.167 21.5968 19.6612 21.272 20.2628 21.0122C20.8645 20.7524 21.5951 20.6224 22.4546 20.6224C23.3141 20.6224 24.0231 20.7524 24.6463 21.0122C25.2479 21.272 25.7636 21.5968 26.1719 21.9866C26.6446 22.4629 26.967 23.0043 27.1603 23.5889C27.3322 24.1952 27.4397 24.9963 27.4397 26.0357C27.4397 27.075 27.3537 27.8978 27.1603 28.5041C26.967 29.1104 26.6232 29.6517 26.1504 30.1281ZM23.8083 24.6282C23.7438 24.2818 23.6149 24.0436 23.4 23.8487C23.1851 23.6539 22.8843 23.5456 22.4546 23.5456C22.0463 23.5456 21.724 23.6539 21.5091 23.8487C21.2942 24.0436 21.1653 24.3251 21.1008 24.6715C21.0364 25.018 20.9934 25.4944 20.9934 26.0573C20.9934 26.6203 21.0364 27.075 21.1008 27.4215C21.1653 27.7679 21.2942 28.0494 21.5091 28.2443C21.724 28.4392 22.0463 28.5474 22.4546 28.5474C22.8628 28.5474 23.1851 28.4392 23.4 28.2443C23.6149 28.0494 23.7438 27.7896 23.8083 27.4648C23.8727 27.14 23.9157 26.6636 23.9157 26.0357C23.8942 25.4294 23.8727 24.953 23.8083 24.6282ZM15.0198 23.3724C14.5471 23.3724 14.3107 23.5889 14.3107 24.022V31.3623H10.8083V24.7149V23.7838C10.8083 23.2641 10.9372 22.7661 11.195 22.2897C11.4529 21.8134 11.8397 21.402 12.3769 21.0988C12.9141 20.7957 13.5802 20.6441 14.3752 20.6441H17.4694L16.7818 23.3724H15.0198ZM8.8529 29.76C7.60661 31.1458 5.56529 31.4706 3.50248 31.3406V35H0C0 35 0 21.337 0 20.6658C2.85785 20.6441 5.00661 20.6441 6.05951 20.6441C7.21984 20.6441 8.1438 20.9689 8.8529 21.5968C9.30414 22.0299 9.60496 22.5496 9.73389 23.1991C9.86281 23.8487 9.92728 24.6282 9.92728 25.581V26.079V26.577C9.92728 27.5297 9.86281 27.573 9.73389 28.201C9.60496 28.8073 9.26116 29.3053 8.8529 29.76ZM5.3719 23.1991C4.92066 23.1991 4.1686 23.2208 3.69587 23.2208L3.48099 23.3074V28.7639C3.48099 28.7639 3.8248 28.7856 4.83471 28.7856C5.56529 28.7856 6.05951 28.3958 6.31736 27.9628C6.57521 27.5297 6.72562 26.7286 6.72562 25.6892C6.72562 23.957 6.44628 23.1991 5.3719 23.1991Z" fill="white"/>
<path d="M53.1174 23.459C53.3752 23.3074 53.6976 23.2208 54.0843 23.2208C54.4711 23.2208 54.7934 23.3074 55.0513 23.459C55.3091 23.6106 55.5025 23.8054 55.61 24.0436C55.7389 24.2818 55.8033 24.5633 55.8033 24.8664H52.3868C52.3868 24.5416 52.4513 24.2818 52.5802 24.0436C52.6876 23.8271 52.8595 23.6106 53.1174 23.459Z" fill="white"/>
<path d="M64.162 27.703L58.962 32.9863C58.7042 33.2245 58.3604 33.376 57.9951 33.376C57.6298 33.376 57.286 33.2245 57.0496 32.9863L55.4595 31.384C56.0397 31.319 56.5339 31.2107 56.9637 31.0375C57.6083 30.7777 58.2529 30.3446 58.8976 29.76L56.7918 27.8329C56.448 28.136 56.1257 28.3525 55.8033 28.5041C55.481 28.634 55.0083 28.7206 54.4281 28.7206C53.805 28.7206 53.3108 28.5691 52.9455 28.2443C52.5802 27.9195 52.4083 27.5297 52.4083 27.075H59.2843V25.6243C59.2843 24.6715 59.0909 23.8054 58.6827 23.0476C58.2744 22.2897 57.6943 21.6834 56.8992 21.2504C56.1257 20.7957 55.1802 20.5791 54.1058 20.5791C52.5802 20.5791 51.3339 21.0555 50.3885 22.0082C49.6794 22.7228 49.2496 23.6322 49.0562 24.7582C48.7124 24.2168 48.4976 23.5023 48.4976 22.9393V18.4788C48.4976 17.721 49.1207 17.093 49.8513 17.093H54.2562C55.0083 17.093 56.0397 17.5261 56.5769 18.0674L64.162 25.7325C64.3984 25.9924 64.5488 26.3388 64.5488 26.7069C64.5488 27.0967 64.3984 27.4431 64.162 27.703Z" fill="white"/>
<path d="M64.162 27.703L58.962 32.9863C58.7042 33.2245 58.3604 33.376 57.9951 33.376C57.6298 33.376 57.286 33.2245 57.0496 32.9863L55.4595 31.384C56.0397 31.319 56.5339 31.2107 56.9637 31.0375C57.6083 30.7777 58.2529 30.3446 58.8976 29.76L56.7918 27.8329C56.448 28.136 56.1257 28.3525 55.8033 28.5041C55.481 28.634 55.0083 28.7206 54.4281 28.7206C53.805 28.7206 53.3108 28.5691 52.9455 28.2443C52.5802 27.9195 52.4083 27.5297 52.4083 27.075H59.2843V25.6243C59.2843 24.6715 59.0909 23.8054 58.6827 23.0476C58.2744 22.2897 57.6943 21.6834 56.8992 21.2504C56.1257 20.7957 55.1802 20.5791 54.1058 20.5791C52.5802 20.5791 51.3339 21.0555 50.3885 22.0082C49.6794 22.7228 49.2496 23.6322 49.0562 24.7582C48.7124 24.2168 48.4976 23.5023 48.4976 22.9393V18.4788C48.4976 17.721 49.1207 17.093 49.8513 17.093H54.2562C55.0083 17.093 56.0397 17.5261 56.5769 18.0674L64.162 25.7325C64.3984 25.9924 64.5488 26.3388 64.5488 26.7069C64.5488 27.0967 64.3984 27.4431 64.162 27.703Z" fill="white"/>
<path d="M114.601 23.2887H112.73V29.6829C112.73 29.8026 112.627 29.9052 112.507 29.9052H111.065C110.945 29.9052 110.842 29.8026 110.842 29.6829V23.2887H108.954C108.903 23.2887 108.834 23.2716 108.8 23.2374C108.766 23.2032 108.731 23.152 108.731 23.0836V21.9552C108.731 21.9039 108.748 21.8355 108.8 21.8013C108.834 21.7671 108.903 21.7329 108.954 21.75H114.601C114.721 21.75 114.824 21.8355 114.824 21.9552V23.0836C114.824 23.2032 114.721 23.2887 114.601 23.2887Z" fill="white"/>
<path d="M120.608 29.8539C119.87 29.9565 119.114 30.0078 118.376 29.9907C116.952 29.9907 115.699 29.6316 115.699 27.6313V23.9897C115.699 21.9894 116.969 21.6475 118.394 21.6475C119.132 21.6304 119.87 21.6816 120.608 21.7842C120.762 21.8013 120.831 21.8697 120.831 22.0065V23.0323C120.831 23.152 120.728 23.2545 120.608 23.2545H118.291C117.776 23.2545 117.587 23.4255 117.587 24.0068V24.9984H120.522C120.642 24.9984 120.745 25.101 120.745 25.2207V26.2636C120.745 26.3833 120.642 26.4858 120.522 26.4858H117.587V27.6484C117.587 28.2126 117.776 28.4007 118.291 28.4007H120.608C120.728 28.4007 120.831 28.5032 120.831 28.6229V29.6487C120.831 29.7684 120.762 29.8368 120.608 29.8539Z" fill="white"/>
<path d="M128.914 29.9052H127.164C127.043 29.9223 126.923 29.8539 126.872 29.7342L125.344 27.3407L123.971 29.6829C123.903 29.8197 123.817 29.9052 123.697 29.9052H122.066C122.032 29.9052 121.981 29.9052 121.946 29.871C121.912 29.8368 121.895 29.8026 121.895 29.7513C121.895 29.7171 121.912 29.7 121.912 29.6829L124.297 25.7165L121.878 21.9552C121.86 21.9381 121.86 21.9039 121.86 21.8868C121.86 21.8013 121.946 21.7329 122.032 21.75H123.834C123.954 21.75 124.04 21.8526 124.109 21.9552L125.516 24.1778L126.889 21.9552C126.94 21.8355 127.043 21.7671 127.164 21.75H128.794C128.88 21.75 128.966 21.8013 128.966 21.8868C128.966 21.9039 128.948 21.9381 128.948 21.9552L126.546 25.7507L129.051 29.6829C129.069 29.7171 129.086 29.7513 129.086 29.7855C129.069 29.8539 129.017 29.9052 128.914 29.9052Z" fill="white"/>
<path d="M106.088 21.7671C106.002 21.7671 105.934 21.8184 105.917 21.9039L104.321 27.8023C104.303 27.922 104.269 27.9733 104.166 27.9733C104.063 27.9733 104.029 27.922 104.012 27.8023L102.416 21.9039C102.398 21.8184 102.33 21.7671 102.244 21.7671H100.665C100.614 21.7671 100.562 21.7842 100.528 21.8355C100.493 21.8697 100.476 21.921 100.493 21.9723C100.493 21.9723 102.45 28.7426 102.467 28.811C102.724 29.6145 103.359 30.0078 104.166 30.0078C104.938 30.042 105.642 29.5462 105.865 28.811C105.899 28.7255 107.805 21.9723 107.805 21.9723C107.822 21.921 107.805 21.8697 107.77 21.8355C107.736 21.8013 107.684 21.7671 107.633 21.7671H106.088Z" fill="white"/>
<path d="M97.1639 16.2791H80.7396C80.1389 16.2791 79.5897 16.6039 79.298 17.0997C78.9891 17.6126 78.9719 18.2452 79.2465 18.7581L80.8941 21.8697H77.9078C77.5303 21.8697 77.1699 22.0578 76.9639 22.3826C76.758 22.7074 76.758 23.1178 76.9296 23.4597L82.2156 33.41C82.4044 33.769 82.7819 33.9913 83.1767 33.9913C83.5714 33.9913 83.949 33.769 84.1377 33.41L85.5794 30.7087L87.3814 34.111C87.6732 34.6581 88.2567 35 88.8745 35C89.4924 35 90.0759 34.6581 90.3676 34.111L98.6055 18.6726C98.8801 18.1597 98.863 17.5442 98.554 17.0655C98.2795 16.5697 97.7474 16.2791 97.1639 16.2791ZM89.8185 22.7929L86.2144 29.529C86.0942 29.7684 85.854 29.9052 85.5794 29.9052C85.3048 29.9052 85.0645 29.7513 84.9444 29.529L81.3918 22.8613C81.2888 22.6562 81.2888 22.4168 81.4089 22.2116C81.5291 22.0065 81.7522 21.8868 81.9753 21.8868H89.2521C89.4752 21.8868 89.6812 21.9894 89.7841 22.1774C89.9214 22.3655 89.9214 22.6049 89.8185 22.7929Z" fill="white"/>
<path d="M79.6673 2.57884C80.6992 2.57884 81.4908 2.77674 82.0421 3.17253C82.6004 3.56126 82.8796 4.14435 82.8796 4.92181C82.8796 5.34587 82.8019 5.70986 82.6464 6.01378C82.498 6.31062 82.2789 6.55446 81.9891 6.74529C81.7064 6.92905 81.36 7.06334 80.9501 7.14816C80.5402 7.23297 80.0772 7.27537 79.5613 7.27537H78.745V10H77.7166V2.75907C78.0064 2.68839 78.328 2.64245 78.6814 2.62125C79.0418 2.59298 79.3705 2.57884 79.6673 2.57884ZM79.7521 3.47998C79.3139 3.47998 78.9782 3.49058 78.745 3.51179V6.39544H79.5189C79.8723 6.39544 80.1903 6.37423 80.473 6.33183C80.7558 6.28235 80.9925 6.20461 81.1834 6.09859C81.3813 5.98551 81.5332 5.83355 81.6392 5.64272C81.7452 5.45189 81.7982 5.20805 81.7982 4.91121C81.7982 4.6285 81.7417 4.39526 81.6286 4.2115C81.5226 4.02773 81.3742 3.88285 81.1834 3.77683C80.9996 3.66374 80.784 3.586 80.5367 3.54359C80.2893 3.50119 80.0278 3.47998 79.7521 3.47998ZM88.7414 7.24357C88.7414 7.68177 88.6778 8.07757 88.5506 8.43096C88.4234 8.78434 88.2431 9.08826 88.0099 9.3427C87.7837 9.59714 87.5116 9.79503 87.1936 9.93639C86.8755 10.0707 86.5292 10.1378 86.1546 10.1378C85.78 10.1378 85.4337 10.0707 85.1157 9.93639C84.7976 9.79503 84.522 9.59714 84.2887 9.3427C84.0626 9.08826 83.8859 8.78434 83.7586 8.43096C83.6314 8.07757 83.5678 7.68177 83.5678 7.24357C83.5678 6.81244 83.6314 6.42017 83.7586 6.06679C83.8859 5.70633 84.0626 5.39888 84.2887 5.14444C84.522 4.89 84.7976 4.69564 85.1157 4.56135C85.4337 4.42 85.78 4.34932 86.1546 4.34932C86.5292 4.34932 86.8755 4.42 87.1936 4.56135C87.5116 4.69564 87.7837 4.89 88.0099 5.14444C88.2431 5.39888 88.4234 5.70633 88.5506 6.06679C88.6778 6.42017 88.7414 6.81244 88.7414 7.24357ZM87.7131 7.24357C87.7131 6.62161 87.5717 6.1304 87.289 5.76994C87.0134 5.40242 86.6352 5.21865 86.1546 5.21865C85.674 5.21865 85.2924 5.40242 85.0096 5.76994C84.734 6.1304 84.5962 6.62161 84.5962 7.24357C84.5962 7.86553 84.734 8.36028 85.0096 8.7278C85.2924 9.08826 85.674 9.26849 86.1546 9.26849C86.6352 9.26849 87.0134 9.08826 87.289 8.7278C87.5717 8.36028 87.7131 7.86553 87.7131 7.24357ZM94.4997 10C94.3018 9.49112 94.0898 8.91156 93.8636 8.26133C93.6445 7.60403 93.4431 6.92199 93.2593 6.21521C93.0755 6.92199 92.8741 7.60403 92.655 8.26133C92.4359 8.91156 92.2274 9.49112 92.0295 10H91.1708C90.8457 9.27202 90.5276 8.44156 90.2166 7.50861C89.9056 6.57567 89.6123 5.56851 89.3367 4.48714H90.3969C90.4675 4.81933 90.5523 5.17978 90.6513 5.56851C90.7502 5.95724 90.8527 6.34596 90.9587 6.73469C91.0718 7.12342 91.1884 7.49801 91.3086 7.85847C91.4287 8.21892 91.5418 8.53344 91.6478 8.80201C91.768 8.46983 91.8846 8.11997 91.9977 7.75245C92.1179 7.37786 92.2309 7.00327 92.337 6.62867C92.443 6.24701 92.5419 5.87596 92.6338 5.5155C92.7328 5.14798 92.8176 4.80519 92.8882 4.48714H93.7046C93.7682 4.80519 93.8459 5.14798 93.9378 5.5155C94.0297 5.87596 94.1286 6.24701 94.2347 6.62867C94.3407 7.00327 94.4502 7.37786 94.5633 7.75245C94.6835 8.11997 94.8036 8.46983 94.9238 8.80201C95.0298 8.53344 95.1393 8.21892 95.2524 7.85847C95.3726 7.49801 95.4892 7.12342 95.6023 6.73469C95.7154 6.34596 95.8214 5.95724 95.9203 5.56851C96.0193 5.17978 96.1041 4.81933 96.1748 4.48714H97.1925C96.9169 5.56851 96.6236 6.57567 96.3126 7.50861C96.0016 8.44156 95.6835 9.27202 95.3584 10H94.4997ZM97.9277 7.25417C97.9277 6.7665 97.9984 6.34243 98.1397 5.98197C98.2811 5.61445 98.4684 5.31053 98.7016 5.07023C98.9348 4.82993 99.2034 4.6497 99.5073 4.52955C99.8112 4.40939 100.122 4.34932 100.44 4.34932C101.182 4.34932 101.751 4.58256 102.147 5.04903C102.543 5.50843 102.741 6.21168 102.741 7.15876C102.741 7.20116 102.741 7.25771 102.741 7.32838C102.741 7.39199 102.737 7.45207 102.73 7.50861H98.956C98.9984 8.0811 99.1645 8.51577 99.4543 8.81261C99.7441 9.10946 100.196 9.25788 100.811 9.25788C101.158 9.25788 101.447 9.22961 101.681 9.17307C101.921 9.10946 102.101 9.04939 102.221 8.99284L102.359 9.81977C102.239 9.88338 102.027 9.95053 101.723 10.0212C101.426 10.0919 101.087 10.1272 100.705 10.1272C100.225 10.1272 99.8077 10.0565 99.4543 9.91519C99.108 9.76676 98.8217 9.56533 98.5956 9.31089C98.3694 9.05645 98.1998 8.75607 98.0867 8.40975C97.9807 8.05636 97.9277 7.67117 97.9277 7.25417ZM101.712 6.71349C101.72 6.26822 101.606 5.90423 101.373 5.62152C101.147 5.33174 100.833 5.18685 100.43 5.18685C100.203 5.18685 100.002 5.23279 99.8254 5.32467C99.6557 5.40948 99.5109 5.52257 99.3907 5.66392C99.2706 5.80528 99.1751 5.96784 99.1045 6.1516C99.0408 6.33536 98.9984 6.52266 98.9772 6.71349H101.712ZM106.193 4.37052C106.277 4.37052 106.373 4.37759 106.479 4.39173C106.592 4.39879 106.702 4.41293 106.808 4.43413C106.914 4.44827 107.009 4.46594 107.094 4.48714C107.186 4.50128 107.253 4.51541 107.295 4.52955L107.126 5.38828C107.048 5.36001 106.917 5.3282 106.733 5.29287C106.557 5.25046 106.327 5.22926 106.044 5.22926C105.86 5.22926 105.677 5.25046 105.493 5.29287C105.316 5.3282 105.2 5.35294 105.143 5.36708V10H104.157V4.72038C104.39 4.63556 104.68 4.55782 105.026 4.48714C105.373 4.40939 105.762 4.37052 106.193 4.37052ZM107.939 7.25417C107.939 6.7665 108.01 6.34243 108.151 5.98197C108.293 5.61445 108.48 5.31053 108.713 5.07023C108.946 4.82993 109.215 4.6497 109.519 4.52955C109.823 4.40939 110.134 4.34932 110.452 4.34932C111.194 4.34932 111.763 4.58256 112.159 5.04903C112.554 5.50843 112.752 6.21168 112.752 7.15876C112.752 7.20116 112.752 7.25771 112.752 7.32838C112.752 7.39199 112.749 7.45207 112.742 7.50861H108.968C109.01 8.0811 109.176 8.51577 109.466 8.81261C109.756 9.10946 110.208 9.25788 110.823 9.25788C111.169 9.25788 111.459 9.22961 111.692 9.17307C111.932 9.10946 112.113 9.04939 112.233 8.99284L112.371 9.81977C112.251 9.88338 112.039 9.95053 111.735 10.0212C111.438 10.0919 111.098 10.1272 110.717 10.1272C110.236 10.1272 109.819 10.0565 109.466 9.91519C109.12 9.76676 108.833 9.56533 108.607 9.31089C108.381 9.05645 108.211 8.75607 108.098 8.40975C107.992 8.05636 107.939 7.67117 107.939 7.25417ZM111.724 6.71349C111.731 6.26822 111.618 5.90423 111.385 5.62152C111.159 5.33174 110.844 5.18685 110.441 5.18685C110.215 5.18685 110.014 5.23279 109.837 5.32467C109.667 5.40948 109.522 5.52257 109.402 5.66392C109.282 5.80528 109.187 5.96784 109.116 6.1516C109.052 6.33536 109.01 6.52266 108.989 6.71349H111.724ZM117.731 5.65332C117.611 5.55437 117.438 5.45896 117.211 5.36708C116.985 5.2752 116.738 5.22926 116.469 5.22926C116.187 5.22926 115.943 5.28226 115.738 5.38828C115.54 5.48723 115.377 5.62858 115.25 5.81235C115.123 5.98904 115.031 6.20107 114.974 6.44845C114.918 6.69582 114.89 6.96086 114.89 7.24357C114.89 7.88674 115.049 8.38501 115.367 8.7384C115.685 9.08472 116.109 9.25788 116.639 9.25788C116.907 9.25788 117.13 9.24728 117.307 9.22608C117.491 9.19781 117.632 9.16954 117.731 9.14127V5.65332ZM117.731 1.94274L118.717 1.77312V9.84098C118.491 9.90459 118.201 9.9682 117.847 10.0318C117.494 10.0954 117.088 10.1272 116.628 10.1272C116.204 10.1272 115.823 10.0601 115.483 9.92579C115.144 9.7915 114.854 9.60067 114.614 9.3533C114.374 9.10593 114.186 8.80555 114.052 8.45216C113.925 8.0917 113.861 7.68884 113.861 7.24357C113.861 6.8195 113.914 6.43078 114.02 6.07739C114.133 5.724 114.296 5.42009 114.508 5.16565C114.72 4.91121 114.978 4.71331 115.282 4.57195C115.593 4.4306 115.946 4.35992 116.342 4.35992C116.66 4.35992 116.939 4.40233 117.18 4.48714C117.427 4.57195 117.611 4.65323 117.731 4.73098V1.94274ZM123.851 4.73098C123.971 4.65323 124.152 4.57195 124.392 4.48714C124.639 4.40233 124.922 4.35992 125.24 4.35992C125.636 4.35992 125.986 4.4306 126.29 4.57195C126.601 4.71331 126.862 4.91121 127.074 5.16565C127.286 5.42009 127.445 5.724 127.551 6.07739C127.664 6.43078 127.721 6.8195 127.721 7.24357C127.721 7.68884 127.654 8.0917 127.519 8.45216C127.392 8.80555 127.208 9.10593 126.968 9.3533C126.728 9.60067 126.438 9.7915 126.099 9.92579C125.76 10.0601 125.378 10.1272 124.954 10.1272C124.494 10.1272 124.088 10.0954 123.735 10.0318C123.381 9.9682 123.091 9.90459 122.865 9.84098V1.94274L123.851 1.77312V4.73098ZM123.851 9.14127C123.95 9.16954 124.088 9.19781 124.265 9.22608C124.449 9.24728 124.675 9.25788 124.943 9.25788C125.473 9.25788 125.897 9.08472 126.215 8.7384C126.534 8.38501 126.693 7.88674 126.693 7.24357C126.693 6.96086 126.664 6.69582 126.608 6.44845C126.551 6.20107 126.459 5.98904 126.332 5.81235C126.205 5.62858 126.039 5.48723 125.834 5.38828C125.636 5.28226 125.396 5.22926 125.113 5.22926C124.844 5.22926 124.597 5.2752 124.371 5.36708C124.145 5.45896 123.971 5.55437 123.851 5.65332V9.14127ZM128.327 11.0284C128.405 11.0637 128.504 11.0955 128.624 11.1238C128.751 11.1591 128.875 11.1768 128.995 11.1768C129.384 11.1768 129.688 11.0884 129.907 10.9117C130.126 10.7421 130.324 10.4629 130.5 10.0742C130.055 9.22608 129.638 8.32847 129.249 7.38139C128.868 6.42724 128.55 5.46249 128.295 4.48714H129.355C129.433 4.80519 129.525 5.14798 129.631 5.5155C129.744 5.88302 129.868 6.26115 130.002 6.64988C130.136 7.0386 130.281 7.42733 130.437 7.81606C130.592 8.20479 130.755 8.57938 130.924 8.93983C131.193 8.19772 131.426 7.46267 131.624 6.73469C131.822 6.00671 132.009 5.25753 132.186 4.48714H133.204C132.949 5.5261 132.667 6.52619 132.356 7.48741C132.045 8.44156 131.709 9.33563 131.348 10.1696C131.207 10.4877 131.059 10.7598 130.903 10.986C130.755 11.2192 130.589 11.41 130.405 11.5584C130.221 11.7069 130.013 11.8164 129.779 11.8871C129.553 11.9578 129.295 11.9931 129.006 11.9931C128.928 11.9931 128.846 11.986 128.762 11.9719C128.677 11.9648 128.592 11.9507 128.507 11.9295C128.429 11.9154 128.355 11.8977 128.285 11.8765C128.221 11.8553 128.175 11.8376 128.147 11.8235L128.327 11.0284Z" fill="white"/>
</svg>
