<?xml version="1.0" encoding="utf-8"?>
<!-- Generator: Adobe Illustrator 18.0.0, SVG Export Plug-In . SVG Version: 6.00 Build 0)  -->
<!DOCTYPE svg PUBLIC "-//W3C//DTD SVG 1.1//EN" "http://www.w3.org/Graphics/SVG/1.1/DTD/svg11.dtd">
<svg version="1.1" id="Layer_1" xmlns="http://www.w3.org/2000/svg" xmlns:xlink="http://www.w3.org/1999/xlink" x="0px" y="0px"
	 viewBox="0 0 53.6 44.8" enable-background="new 0 0 53.6 44.8" xml:space="preserve">
<g>
	<path d="M45.5,33.3H10.3c-1.2,0-2.2-1-2.2-2.2V10.3c0-1.2,1-2.2,2.2-2.2h41.1c0.7,0,1.4,0.3,1.8,0.9c0.4,0.6,0.6,1.3,0.4,2
		l-5.9,20.7C47.3,32.6,46.5,33.3,45.5,33.3z M12.5,28.8h31.3l4.7-16.2H12.5V28.8z"/>
	<path d="M10.3,12.8c-0.6,0-1.3-0.2-1.8-0.7L0.7,4.3c-1-1-1-2.6,0-3.5c1-1,2.6-1,3.5,0L12,8.5c1,1,1,2.6,0,3.5
		C11.5,12.6,10.9,12.8,10.3,12.8z"/>
	<path d="M45.5,22.7H10.3c-1.1,0-2-0.9-2-2s0.9-2,2-2h35.2c1.1,0,2,0.9,2,2S46.6,22.7,45.5,22.7z"/>
	<path d="M13.8,44.8c-3.8,0-6.8-3.1-6.8-6.8c0-3.8,3.1-6.8,6.8-6.8c3.8,0,6.8,3.1,6.8,6.8C20.7,41.7,17.6,44.8,13.8,44.8z
		 M13.8,35.1c-1.6,0-2.8,1.3-2.8,2.8c0,1.6,1.3,2.8,2.8,2.8c1.6,0,2.8-1.3,2.8-2.8C16.7,36.4,15.4,35.1,13.8,35.1z"/>
	<path d="M41.1,44.8c-3.8,0-6.8-3.1-6.8-6.8c0-3.8,3.1-6.8,6.8-6.8c3.8,0,6.8,3.1,6.8,6.8C48,41.7,44.9,44.8,41.1,44.8z M41.1,35.1
		c-1.6,0-2.8,1.3-2.8,2.8c0,1.6,1.3,2.8,2.8,2.8c1.6,0,2.8-1.3,2.8-2.8C44,36.4,42.7,35.1,41.1,35.1z"/>
	<path d="M22.7,32c-1.1,0-2-0.9-2-2V10.3c0-1.1,0.9-2,2-2s2,0.9,2,2V30C24.7,31.1,23.8,32,22.7,32z"/>
	<path d="M35.8,32c-1.1,0-2-0.9-2-2V10.3c0-1.1,0.9-2,2-2s2,0.9,2,2V30C37.8,31.1,36.9,32,35.8,32z"/>
</g>
</svg>
