<?xml version="1.0" encoding="utf-8"?>
<!-- Generator: Adobe Illustrator 18.0.0, SVG Export Plug-In . SVG Version: 6.00 Build 0)  -->
<!DOCTYPE svg PUBLIC "-//W3C//DTD SVG 1.1//EN" "http://www.w3.org/Graphics/SVG/1.1/DTD/svg11.dtd">
<svg version="1.1" id="Layer_1" xmlns="http://www.w3.org/2000/svg" xmlns:xlink="http://www.w3.org/1999/xlink" x="0px" y="0px"
	 viewBox="0 0 46.6 36.2" enable-background="new 0 0 46.6 36.2" xml:space="preserve">
<path d="M40.9,0H5.7C2.6,0,0,2.6,0,5.7v24.8c0,3.2,2.6,5.7,5.7,5.7h35.2c3.1,0,5.7-2.6,5.7-5.7V5.7C46.6,2.6,44.1,0,40.9,0z
	 M23.3,18.8L9.1,5h28.5L23.3,18.8z M15.7,18.4L5,28.3V8L15.7,18.4z M19.3,21.9l2.3,2.2c0.5,0.5,1.1,0.7,1.7,0.7
	c0.6,0,1.3-0.2,1.7-0.7l2.3-2.2l10.1,9.3H9.2L19.3,21.9z M31,18.4L41.6,8v20.2L31,18.4z"/>
</svg>
