<svg width="65" height="18" viewBox="0 0 65 18" fill="none" xmlns="http://www.w3.org/2000/svg">
<path fill-rule="evenodd" clip-rule="evenodd" d="M45.2744 11.634H47.0794V14.3623H44.6298C43.8347 14.3623 43.1686 14.2107 42.6314 13.9076C42.0942 13.6044 41.7075 13.2147 41.4496 12.7167C41.1918 12.2403 41.0628 11.7423 41.0628 11.2226V6.65386V4.16377V1.97682L44.5653 1.04575V5.1165H47.1008V7.60659H44.5868V11.0061C44.5653 11.4175 44.8017 11.634 45.2744 11.634ZM36.1207 5.09484H39.6232V14.3623H36.1207V5.09484ZM36.0777 0.0930176H39.6017V2.79963H36.0777V0.0930176ZM31.9951 14.3623H28.4926V6.65386V4.16377V3.23269C28.4926 2.71302 28.6215 2.215 28.8794 1.73864C29.1372 1.26228 29.524 0.85087 30.0612 0.547729C30.5984 0.244588 31.2645 0.0930176 32.0595 0.0930176H34.6165V2.82129H32.7041C32.2314 2.82129 31.9951 3.03782 31.9951 3.47088V5.09484H34.6165V7.58493H31.9951V14.3623ZM26.1504 13.1281C25.2265 14.0375 23.9802 14.4922 22.4546 14.4922C20.9074 14.4922 19.6612 14.0375 18.7587 13.1281C18.4364 12.8249 18.2 12.4785 18.0066 12.1104C17.8132 11.7423 17.6843 11.3309 17.6198 10.8545C17.5339 10.3782 17.5124 9.79353 17.5124 9.05733C17.5124 8.34278 17.5554 7.7365 17.6198 7.26014C17.7058 6.78377 17.8347 6.37237 18.0066 6.00427C18.2 5.63617 18.4364 5.28972 18.7587 4.98658C19.167 4.59683 19.6612 4.27203 20.2628 4.0122C20.8645 3.75236 21.5951 3.62245 22.4546 3.62245C23.3141 3.62245 24.0231 3.75236 24.6463 4.0122C25.2479 4.27203 25.7636 4.59683 26.1719 4.98658C26.6446 5.46294 26.967 6.00427 27.1603 6.5889C27.3322 7.19518 27.4397 7.99634 27.4397 9.03568C27.4397 10.075 27.3537 10.8978 27.1603 11.5041C26.967 12.1104 26.6232 12.6517 26.1504 13.1281ZM23.8083 7.62824C23.7438 7.28179 23.6149 7.04361 23.4 6.84873C23.1851 6.65386 22.8843 6.54559 22.4546 6.54559C22.0463 6.54559 21.724 6.65386 21.5091 6.84873C21.2942 7.04361 21.1653 7.3251 21.1008 7.67154C21.0364 8.01799 20.9934 8.49436 20.9934 9.05733C20.9934 9.62031 21.0364 10.075 21.1008 10.4215C21.1653 10.7679 21.2942 11.0494 21.5091 11.2443C21.724 11.4392 22.0463 11.5474 22.4546 11.5474C22.8628 11.5474 23.1851 11.4392 23.4 11.2443C23.6149 11.0494 23.7438 10.7896 23.8083 10.4648C23.8727 10.14 23.9157 9.66362 23.9157 9.03568C23.8942 8.4294 23.8727 7.95303 23.8083 7.62824ZM15.0198 6.37237C14.5471 6.37237 14.3107 6.5889 14.3107 7.02196V14.3623H10.8083V7.71485V6.78377C10.8083 6.2641 10.9372 5.76609 11.195 5.28972C11.4529 4.81336 11.8397 4.40195 12.3769 4.09881C12.9141 3.79567 13.5802 3.6441 14.3752 3.6441H17.4694L16.7818 6.37237H15.0198ZM8.8529 12.76C7.60661 14.1458 5.56529 14.4706 3.50248 14.3406V18H0C0 18 0 4.33699 0 3.66575C2.85785 3.6441 5.00661 3.6441 6.05951 3.6441C7.21984 3.6441 8.1438 3.96889 8.8529 4.59683C9.30414 5.02989 9.60496 5.54956 9.73389 6.19915C9.86281 6.84873 9.92728 7.62824 9.92728 8.58097V9.07899V9.577C9.92728 10.5297 9.86281 10.573 9.73389 11.201C9.60496 11.8073 9.26116 12.3053 8.8529 12.76ZM5.3719 6.19915C4.92066 6.19915 4.1686 6.2208 3.69587 6.2208L3.48099 6.30741V11.7639C3.48099 11.7639 3.8248 11.7856 4.83471 11.7856C5.56529 11.7856 6.05951 11.3958 6.31736 10.9628C6.57521 10.5297 6.72562 9.72857 6.72562 8.68923C6.72562 6.957 6.44628 6.19915 5.3719 6.19915Z" fill="white"/>
<path d="M53.1174 6.45899C53.3752 6.30742 53.6976 6.22081 54.0843 6.22081C54.4711 6.22081 54.7934 6.30742 55.0513 6.45899C55.3091 6.61056 55.5025 6.80544 55.61 7.04362C55.7389 7.2818 55.8033 7.56329 55.8033 7.86643H52.3868C52.3868 7.54164 52.4513 7.2818 52.5802 7.04362C52.6876 6.82709 52.8595 6.61056 53.1174 6.45899Z" fill="white"/>
<path d="M64.162 10.703L58.962 15.9863C58.7042 16.2245 58.3604 16.376 57.9951 16.376C57.6298 16.376 57.286 16.2245 57.0496 15.9863L55.4595 14.384C56.0397 14.319 56.5339 14.2107 56.9637 14.0375C57.6083 13.7777 58.2529 13.3446 58.8976 12.76L56.7918 10.8329C56.448 11.136 56.1257 11.3525 55.8033 11.5041C55.481 11.634 55.0083 11.7206 54.4281 11.7206C53.805 11.7206 53.3108 11.5691 52.9455 11.2443C52.5802 10.9195 52.4083 10.5297 52.4083 10.075H59.2843V8.62427C59.2843 7.67154 59.0909 6.80543 58.6827 6.04757C58.2744 5.28972 57.6943 4.68344 56.8992 4.25038C56.1257 3.79567 55.1802 3.57914 54.1058 3.57914C52.5802 3.57914 51.3339 4.05551 50.3885 5.00823C49.6794 5.72278 49.2496 6.6322 49.0562 7.75816C48.7124 7.21683 48.4976 6.50229 48.4976 5.93931V1.47881C48.4976 0.720953 49.1207 0.0930176 49.8513 0.0930176H54.2562C55.0083 0.0930176 56.0397 0.526076 56.5769 1.0674L64.162 8.73254C64.3984 8.99237 64.5488 9.33882 64.5488 9.70692C64.5488 10.0967 64.3984 10.4431 64.162 10.703Z" fill="white"/>
<path d="M64.162 10.703L58.962 15.9863C58.7042 16.2245 58.3604 16.376 57.9951 16.376C57.6298 16.376 57.286 16.2245 57.0496 15.9863L55.4595 14.384C56.0397 14.319 56.5339 14.2107 56.9637 14.0375C57.6083 13.7777 58.2529 13.3446 58.8976 12.76L56.7918 10.8329C56.448 11.136 56.1257 11.3525 55.8033 11.5041C55.481 11.634 55.0083 11.7206 54.4281 11.7206C53.805 11.7206 53.3108 11.5691 52.9455 11.2443C52.5802 10.9195 52.4083 10.5297 52.4083 10.075H59.2843V8.62427C59.2843 7.67154 59.0909 6.80543 58.6827 6.04757C58.2744 5.28972 57.6943 4.68344 56.8992 4.25038C56.1257 3.79567 55.1802 3.57914 54.1058 3.57914C52.5802 3.57914 51.3339 4.05551 50.3885 5.00823C49.6794 5.72278 49.2496 6.6322 49.0562 7.75816C48.7124 7.21683 48.4976 6.50229 48.4976 5.93931V1.47881C48.4976 0.720953 49.1207 0.0930176 49.8513 0.0930176H54.2562C55.0083 0.0930176 56.0397 0.526076 56.5769 1.0674L64.162 8.73254C64.3984 8.99237 64.5488 9.33882 64.5488 9.70692C64.5488 10.0967 64.3984 10.4431 64.162 10.703Z" fill="white"/>
</svg>
