<svg width="54" height="19" viewBox="0 0 54 19" fill="none" xmlns="http://www.w3.org/2000/svg">
<path d="M38.6008 7.28873H36.7301V13.6829C36.7301 13.8026 36.6271 13.9052 36.507 13.9052H35.0653C34.9452 13.9052 34.8422 13.8026 34.8422 13.6829V7.28873H32.9544C32.9029 7.28873 32.8342 7.27163 32.7999 7.23744C32.7656 7.20325 32.7313 7.15196 32.7313 7.08357V5.95518C32.7313 5.90389 32.7484 5.83551 32.7999 5.80131C32.8342 5.76712 32.9029 5.73293 32.9544 5.75002H38.6008C38.7209 5.75002 38.8239 5.83551 38.8239 5.95518V7.08357C38.8239 7.20325 38.7209 7.28873 38.6008 7.28873Z" fill="white"/>
<path d="M44.6076 13.8539C43.8696 13.9565 43.1144 14.0078 42.3765 13.9907C40.952 13.9907 39.6992 13.6316 39.6992 11.6313V7.98971C39.6992 5.98939 40.9692 5.64745 42.3936 5.64745C43.1316 5.63036 43.8696 5.68165 44.6076 5.78423C44.762 5.80132 44.8307 5.86971 44.8307 6.00648V7.03229C44.8307 7.15197 44.7277 7.25455 44.6076 7.25455H42.2907C41.7758 7.25455 41.587 7.42551 41.587 8.0068V8.99841H44.5217C44.6419 8.99841 44.7449 9.101 44.7449 9.22067V10.2636C44.7449 10.3833 44.6419 10.4858 44.5217 10.4858H41.587V11.6484C41.587 12.2126 41.7758 12.4007 42.2907 12.4007H44.6076C44.7277 12.4007 44.8307 12.5032 44.8307 12.6229V13.6487C44.8307 13.7684 44.762 13.8368 44.6076 13.8539Z" fill="white"/>
<path d="M52.9141 13.9052H51.1636C51.0434 13.9223 50.9233 13.8539 50.8718 13.7342L49.3443 11.3407L47.9714 13.6829C47.9027 13.8197 47.8169 13.9052 47.6968 13.9052H46.0664C46.032 13.9052 45.9805 13.9052 45.9462 13.871C45.9119 13.8368 45.8947 13.8026 45.8947 13.7513C45.8947 13.7171 45.9119 13.7 45.9119 13.6829L48.2975 9.71648L45.8776 5.95519C45.8604 5.9381 45.8604 5.9039 45.8604 5.88681C45.8604 5.80132 45.9462 5.73294 46.032 5.75003H47.8341C47.9542 5.75003 48.04 5.85261 48.1087 5.95519L49.516 8.17777L50.889 5.95519C50.9404 5.83552 51.0434 5.76713 51.1636 5.75003H52.794C52.8798 5.75003 52.9656 5.80132 52.9656 5.88681C52.9656 5.9039 52.9484 5.9381 52.9484 5.95519L50.5457 9.75067L53.0514 13.6829C53.0686 13.7171 53.0857 13.7513 53.0857 13.7855C53.0686 13.8539 53.0171 13.9052 52.9141 13.9052Z" fill="white"/>
<path d="M30.0883 5.76714C30.0025 5.76714 29.9338 5.81843 29.9167 5.90391L28.3206 11.8023C28.3034 11.922 28.2691 11.9733 28.1661 11.9733C28.0631 11.9733 28.0288 11.922 28.0116 11.8023L26.4155 5.90391C26.3984 5.81843 26.3297 5.76714 26.2439 5.76714H24.665C24.6135 5.76714 24.562 5.78424 24.5277 5.83553C24.4934 5.86972 24.4762 5.92101 24.4934 5.9723C24.4934 5.9723 26.4499 12.7426 26.467 12.811C26.7245 13.6145 27.3595 14.0078 28.1661 14.0078C28.9384 14.042 29.6421 13.5462 29.8652 12.811C29.8995 12.7255 31.8045 5.9723 31.8045 5.9723C31.8217 5.92101 31.8045 5.86972 31.7702 5.83553C31.7359 5.80133 31.6844 5.76714 31.6329 5.76714H30.0883Z" fill="white"/>
<path d="M21.1639 0.279068H4.73961C4.13893 0.279068 3.58974 0.603906 3.29798 1.09971C2.98906 1.61261 2.9719 2.24519 3.2465 2.7581L4.89407 5.8697H1.90784C1.53027 5.8697 1.16986 6.05777 0.963915 6.3826C0.757967 6.70744 0.757967 7.11776 0.92959 7.4597L6.21557 17.41C6.40435 17.769 6.78192 17.9913 7.17666 17.9913C7.57139 17.9913 7.94896 17.769 8.13774 17.41L9.57937 14.7087L11.3814 18.111C11.6732 18.6581 12.2567 19 12.8745 19C13.4924 19 14.0759 18.6581 14.3676 18.111L22.6055 2.67261C22.8801 2.15971 22.863 1.54423 22.554 1.06552C22.2795 0.569712 21.7474 0.279068 21.1639 0.279068ZM13.8185 6.79293L10.2144 13.529C10.0942 13.7684 9.85397 13.9052 9.57937 13.9052C9.30478 13.9052 9.06451 13.7513 8.94437 13.529L5.39178 6.86131C5.28881 6.65615 5.28881 6.4168 5.40894 6.21164C5.52908 6.00648 5.75219 5.8868 5.9753 5.8868H13.2521C13.4752 5.8868 13.6812 5.98938 13.7841 6.17744C13.9214 6.36551 13.9214 6.60486 13.8185 6.79293Z" fill="white"/>
</svg>
