<svg width="51" height="45" viewBox="0 0 51 45" fill="none" xmlns="http://www.w3.org/2000/svg">
<path d="M50.8054 44.5355L0.405357 -5.72205e-05L50.8054 -5.72205e-05L50.8054 44.5355Z" fill="#FF9F1C"/>
<path d="M27.2423 13.101C27.2423 13.481 27.289 13.8277 27.3823 14.141C27.4757 14.4477 27.609 14.711 27.7823 14.931C27.9623 15.1444 28.179 15.311 28.4323 15.431C28.6857 15.551 28.9723 15.611 29.2923 15.611C29.6057 15.611 29.889 15.551 30.1423 15.431C30.3957 15.311 30.609 15.1444 30.7823 14.931C30.9623 14.711 31.099 14.4477 31.1923 14.141C31.2857 13.8277 31.3323 13.481 31.3323 13.101C31.3323 12.721 31.2857 12.3777 31.1923 12.071C31.099 11.7577 30.9623 11.4944 30.7823 11.281C30.609 11.061 30.3957 10.891 30.1423 10.771C29.889 10.651 29.6057 10.591 29.2923 10.591C28.9723 10.591 28.6857 10.651 28.4323 10.771C28.179 10.891 27.9623 11.061 27.7823 11.281C27.609 11.501 27.4757 11.7644 27.3823 12.071C27.289 12.3777 27.2423 12.721 27.2423 13.101ZM32.6523 13.101C32.6523 13.6944 32.5623 14.2177 32.3823 14.671C32.209 15.1244 31.969 15.5044 31.6623 15.811C31.3623 16.111 31.009 16.3377 30.6023 16.491C30.1957 16.6444 29.7623 16.721 29.3023 16.721C28.8423 16.721 28.4057 16.6444 27.9923 16.491C27.5857 16.3377 27.229 16.111 26.9223 15.811C26.6223 15.5044 26.3823 15.1244 26.2023 14.671C26.0223 14.2177 25.9323 13.6944 25.9323 13.101C25.9323 12.5077 26.0223 11.9877 26.2023 11.541C26.3823 11.0877 26.6257 10.7077 26.9323 10.401C27.2457 10.0944 27.6057 9.86438 28.0123 9.71105C28.419 9.55771 28.849 9.48105 29.3023 9.48105C29.7557 9.48105 30.1857 9.55771 30.5923 9.71105C30.999 9.86438 31.3523 10.0944 31.6523 10.401C31.959 10.7077 32.2023 11.0877 32.3823 11.541C32.5623 11.9877 32.6523 12.5077 32.6523 13.101ZM34.0346 16.571V9.64104H38.4146V10.711H35.2946V12.481H38.0646V13.551H35.2946V16.571H34.0346ZM39.5424 16.571V9.64104H43.9224V10.711H40.8024V12.481H43.5724V13.551H40.8024V16.571H39.5424Z" fill="white"/>
</svg>
