<svg width="107" height="30" viewBox="0 0 107 30" fill="none" xmlns="http://www.w3.org/2000/svg">
<path d="M20.5584 6.71101C19.6677 7.21887 19.0264 7.87183 18.5988 8.70617C18.1712 9.50423 17.9575 10.3386 17.9575 11.2092V23.9057H23.7651V11.6082C23.7651 10.8827 24.157 10.52 24.9409 10.52H27.8982L29.0383 5.94921H23.9076C22.5537 5.94921 21.4136 6.20315 20.5584 6.71101ZM59.8938 23.9057H65.7015V8.37969H59.8938V23.9057ZM14.6795 7.54534C13.5037 6.45707 11.9716 5.94921 10.0476 5.94921C8.30176 5.94921 4.73877 5.94922 -4.34935e-06 5.98549C-4.34935e-06 7.11004 -4.34935e-06 30 -4.34935e-06 30H5.80767V23.8694C9.22814 24.0871 12.613 23.5429 14.6795 21.2213C15.3921 20.4595 15.9266 19.6252 16.1403 18.5369C16.3541 17.4486 16.461 17.4123 16.461 15.8162V14.1838C16.461 12.5877 16.3541 11.2817 16.1403 10.1935C15.9266 9.14148 15.4277 8.23458 14.6795 7.54534ZM10.4752 18.2104C10.0476 18.9359 9.1925 19.5889 8.01672 19.5889C6.30648 19.5889 5.77204 19.5526 5.77204 19.5526V10.4111L6.12834 10.266C6.9122 10.266 8.15924 10.2297 8.90746 10.2297C10.689 10.2297 11.1522 11.5357 11.1522 14.4377C11.1522 16.1427 10.9027 17.4849 10.4752 18.2104ZM49.8462 0.761789C48.9555 1.26965 48.3141 1.92261 47.8866 2.75695C47.459 3.55502 47.2452 4.38936 47.2452 5.25998V23.9057H53.0529V12.5514H57.3997V8.37969H53.0529V5.65901C53.0529 4.93349 53.4448 4.57074 54.2287 4.57074H57.3997V2.21409e-06H53.1598C51.8415 2.21409e-06 50.7369 0.253929 49.8462 0.761789ZM43.3616 8.19831C42.6846 7.54535 41.8651 7.00121 40.8318 6.56591C39.8342 6.1306 38.6228 5.91294 37.1976 5.91294C35.7724 5.91294 34.5966 6.1306 33.5633 6.56591C32.5657 7.00121 31.7106 7.54535 31.0693 8.19831C30.5348 8.74245 30.1429 9.32285 29.8222 9.90326C29.5015 10.5199 29.2878 11.2092 29.1809 12.0073C29.0384 12.8053 29.0027 13.7848 29.0027 15.0181C29.0027 16.2515 29.074 17.231 29.1809 18.029C29.3234 18.8271 29.5372 19.5163 29.8222 20.133C30.1429 20.7497 30.5348 21.2938 31.0693 21.838C32.5657 23.3615 34.6322 24.1233 37.1976 24.1233C39.7629 24.1233 41.7938 23.3615 43.3259 21.838C44.1098 21.0399 44.6442 20.133 44.9649 19.1536C45.2499 18.1741 45.4281 16.7956 45.4281 15.0181C45.4281 13.2769 45.2856 11.8984 44.9649 10.919C44.7155 9.90327 44.1454 8.99638 43.3616 8.19831ZM39.4779 17.4123C39.371 17.9565 39.1572 18.3918 38.8009 18.7183C38.4446 19.0447 37.9458 19.2261 37.2332 19.2261C36.5562 19.2261 36.0218 19.0447 35.6655 18.7183C35.3092 18.3918 35.0954 17.9202 34.9885 17.3398C34.8816 16.7594 34.8104 15.9976 34.8104 15.0544C34.8104 14.1112 34.8816 13.3495 34.9885 12.7328C35.0954 12.1524 35.3092 11.6808 35.6655 11.3543C36.0218 11.0278 36.5562 10.8464 37.2332 10.8464C37.9102 10.8464 38.4446 11.0278 38.8009 11.3543C39.1572 11.6445 39.371 12.0798 39.4779 12.6602C39.5848 13.2406 39.6561 14.0387 39.6561 15.0544C39.6204 16.0339 39.5848 16.8319 39.4779 17.4123ZM65.6658 2.21409e-06H59.8226V4.53446H65.6658V2.21409e-06ZM78.1007 12.5514V8.37969H73.932V1.55985L68.1243 3.11971V18.6457C68.1243 19.5163 68.3381 20.3507 68.7657 21.1487C69.1932 21.9468 69.8345 22.636 70.7253 23.1439C71.616 23.6518 72.7206 23.9057 74.0389 23.9057H78.1007V19.3349H75.1078C74.3239 19.3349 73.932 18.9722 73.932 18.2467V12.5514H78.1007Z" fill="black"/>
<path d="M106.391 14.5103L93.8136 1.74125C92.9228 0.834357 91.2126 0.181399 89.9655 0.181399H82.6614C81.4144 0.181399 80.2386 1.08829 80.2386 2.35794V9.83074C80.2386 10.7739 80.7018 11.9347 81.2362 12.8779C81.5213 10.9916 82.3051 9.46797 83.4809 8.27087C85.0486 6.67474 87.1152 5.87668 89.6805 5.87668C91.462 5.87668 93.0297 6.23944 94.3124 7.00123C95.5951 7.76301 96.664 8.74247 97.3409 10.0121C98.0179 11.2818 98.4098 12.7328 98.4098 14.3289V16.9045H86.8657C86.8657 17.63 87.1508 18.2467 87.7565 18.7908C88.3622 19.335 89.1817 19.5526 90.215 19.5526C91.177 19.5526 91.9252 19.4075 92.4953 19.1899C93.0297 18.9722 93.5998 18.5732 94.1342 18.0653L97.626 21.2938C96.5927 22.2733 95.5238 22.9988 94.4193 23.4341C93.7067 23.7243 92.8872 23.9057 91.9252 24.0145L94.5618 26.6989C94.9537 27.098 95.5594 27.3519 96.1295 27.3519C96.6996 27.3519 97.3053 27.098 97.7328 26.6989L106.355 17.8477C106.747 17.4486 106.997 16.8319 106.997 16.2153C107.032 15.526 106.783 14.9456 106.391 14.5103Z" fill="#FF9F1C"/>
<path d="M91.2841 10.6651C90.8566 10.4112 90.3221 10.2661 89.6808 10.2661C89.0395 10.2661 88.505 10.4112 88.0774 10.6651C87.6499 10.919 87.3292 11.318 87.1867 11.7171C86.9729 12.1161 86.866 12.4426 86.866 13.1681H92.5312C92.5312 12.4426 92.4243 12.1161 92.2105 11.7171C92.0324 11.3543 91.7117 10.919 91.2841 10.6651Z" fill="#FF9F1C"/>
</svg>
