<svg width="70" height="11" viewBox="0 0 70 11" fill="none" xmlns="http://www.w3.org/2000/svg">
<path fill-rule="evenodd" clip-rule="evenodd" d="M26.0502 4.54276L21.9472 4.21645L20.3437 0.732239L18.7402 4.22171L14.6372 4.54276L17.7529 7.03224L16.8171 10.7322L20.3437 8.76908L23.8703 10.7322L22.9401 7.03224L26.0502 4.54276ZM20.3437 7.78487L18.1981 8.9796L18.7687 6.72697L16.8742 5.21118L19.3736 5.01118L20.3437 2.89013L21.3195 5.01645L23.8189 5.21645L21.9244 6.73224L22.495 8.98487L20.3437 7.78487Z" fill="#FF9F1C"/>
<path fill-rule="evenodd" clip-rule="evenodd" d="M40.6872 4.54276L36.5842 4.21645L34.9807 0.732239L33.3772 4.22171L29.2742 4.54276L32.39 7.03224L31.4541 10.7322L34.9807 8.76908L38.5073 10.7322L37.5772 7.03224L40.6872 4.54276ZM34.9807 7.78487L32.8351 8.97961L33.4057 6.72698L31.5112 5.21119L34.0106 5.01119L34.9807 2.89014L35.9565 5.01645L38.4559 5.21645L36.5614 6.73224L37.132 8.98487L34.9807 7.78487Z" fill="#FF9F1C"/>
<path fill-rule="evenodd" clip-rule="evenodd" d="M54.5541 4.54276L50.4512 4.21645L48.8477 0.732239L47.2441 4.22171L43.1412 4.54276L46.2569 7.03224L45.321 10.7322L48.8477 8.76908L52.3743 10.7322L51.4441 7.03224L54.5541 4.54276ZM48.8476 7.78487L46.702 8.97961L47.2727 6.72698L45.3781 5.21119L47.8775 5.01119L48.8476 2.89014L49.8235 5.01645L52.3229 5.21645L50.4283 6.73224L50.999 8.98487L48.8476 7.78487Z" fill="#FF9F1C"/>
<path fill-rule="evenodd" clip-rule="evenodd" d="M69.1912 4.54276L65.0882 4.21645L63.4847 0.732239L61.8812 4.22171L57.7782 4.54276L60.8939 7.03224L59.9581 10.7322L63.4847 8.76908L67.0113 10.7322L66.0811 7.03224L69.1912 4.54276ZM63.4847 7.78487L61.339 8.97961L61.9097 6.72698L60.0151 5.21119L62.5146 5.01119L63.4847 2.89014L64.4605 5.01645L66.9599 5.21645L65.0654 6.73224L65.636 8.98487L63.4847 7.78487Z" fill="#FF9F1C"/>
<path fill-rule="evenodd" clip-rule="evenodd" d="M5.70648 8.76908L9.23309 10.7322L8.29722 7.03224L11.413 4.54276L7.31 4.22171L5.70648 0.732239L4.10296 4.22171L0 4.54276L3.11574 7.03224L2.17988 10.7322L5.70648 8.76908Z" fill="#FF9F1C"/>
</svg>
