<?xml version="1.0" encoding="utf-8"?>
<!-- Generator: Adobe Illustrator 18.0.0, SVG Export Plug-In . SVG Version: 6.00 Build 0)  -->
<!DOCTYPE svg PUBLIC "-//W3C//DTD SVG 1.1//EN" "http://www.w3.org/Graphics/SVG/1.1/DTD/svg11.dtd">
<svg version="1.1" id="Layer_1" xmlns="http://www.w3.org/2000/svg" xmlns:xlink="http://www.w3.org/1999/xlink" x="0px" y="0px"
	 viewBox="0 0 43.7 43.7" enable-background="new 0 0 43.7 43.7" xml:space="preserve">
<g>
	<path d="M38.6,5.2C35.2,1.8,30.8,0,26.1,0C21.4,0,17,1.8,13.6,5.2C7.4,11.4,6.9,21,11.8,27.9c-0.7,0.1-1.4,0.4-1.9,1L1,37.8
		c-1.4,1.4-1.4,3.6,0,4.9c0.7,0.7,1.6,1,2.5,1s1.8-0.3,2.5-1l8.9-8.9c0.5-0.5,0.9-1.2,1-1.9c3,2.2,6.5,3.3,10.3,3.3
		c4.7,0,9.1-1.8,12.5-5.2C45.4,23.2,45.4,12,38.6,5.2z M34.3,25.8c-2.2,2.2-5.1,3.4-8.2,3.4s-6-1.2-8.2-3.4
		c-4.5-4.5-4.5-11.9,0-16.4C20.1,7.2,23,6,26.1,6c3.1,0,6,1.2,8.2,3.4C38.9,13.9,38.9,21.3,34.3,25.8z"/>
</g>
</svg>
