<?xml version="1.0" encoding="utf-8"?>
<!-- Generator: Adobe Illustrator 18.0.0, SVG Export Plug-In . SVG Version: 6.00 Build 0)  -->
<!DOCTYPE svg PUBLIC "-//W3C//DTD SVG 1.1//EN" "http://www.w3.org/Graphics/SVG/1.1/DTD/svg11.dtd">
<svg version="1.1" id="Layer_1" xmlns="http://www.w3.org/2000/svg" xmlns:xlink="http://www.w3.org/1999/xlink" x="0px" y="0px"
	 viewBox="0 0 64.6 61.7" enable-background="new 0 0 64.6 61.7" xml:space="preserve">
<g>
	<polygon fill="#F8C434" points="32.3,2.5 41.5,21.1 62.1,24.1 47.2,38.7 50.7,59.2 32.3,49.5 13.9,59.2 17.4,38.7 2.5,24.1 
		23.1,21.1 	"/>
	<path fill="#BCBEC0" d="M50.7,61.7c-0.4,0-0.8-0.1-1.2-0.3l-17.2-9.1L15,61.4c-0.8,0.4-1.9,0.4-2.6-0.2c-0.8-0.6-1.2-1.5-1-2.4
		l3.3-19.2l-14-13.6c-0.7-0.7-0.9-1.7-0.6-2.6c0.3-0.9,1.1-1.6,2-1.7l19.3-2.8L30,1.4C30.5,0.5,31.3,0,32.3,0s1.8,0.5,2.2,1.4
		l8.6,17.5l19.3,2.8c0.9,0.1,1.7,0.8,2,1.7c0.3,0.9,0,1.9-0.6,2.6l-14,13.6l3.3,19.2c0.2,0.9-0.2,1.9-1,2.4
		C51.7,61.5,51.2,61.7,50.7,61.7z M32.3,47c0.4,0,0.8,0.1,1.2,0.3l13.9,7.3l-2.7-15.5c-0.1-0.8,0.1-1.6,0.7-2.2l11.3-11l-15.6-2.3
		c-0.8-0.1-1.5-0.6-1.9-1.4l-7-14.1l-7,14.1c-0.4,0.7-1.1,1.2-1.9,1.4L7.9,25.9l11.3,11c0.6,0.6,0.9,1.4,0.7,2.2l-2.7,15.5l13.9-7.3
		C31.5,47.1,31.9,47,32.3,47z"/>
</g>
</svg>
