<?xml version="1.0" encoding="utf-8"?>
<!-- Generator: Adobe Illustrator 18.0.0, SVG Export Plug-In . SVG Version: 6.00 Build 0)  -->
<!DOCTYPE svg PUBLIC "-//W3C//DTD SVG 1.1//EN" "http://www.w3.org/Graphics/SVG/1.1/DTD/svg11.dtd">
<svg version="1.1" id="Layer_1" xmlns="http://www.w3.org/2000/svg" xmlns:xlink="http://www.w3.org/1999/xlink" x="0px" y="0px"
	 viewBox="0 0 48.5 48.6" enable-background="new 0 0 48.5 48.6" xml:space="preserve">
<g>
	<path d="M24.2,0C10.9,0,0,8.9,0,19.9c0,9,7.2,16.7,17.6,19.2l5.1,9.5l8.9-9.7c0.3-0.1,0.6-0.1,0.8-0.2c9.6-2.8,16-10.4,16-18.8
		C48.5,8.9,37.6,0,24.2,0z M31,33.9c-0.4,0.1-0.9,0.2-1.3,0.3L29,34.4l-5.2,5.6l-2.9-5.4l-1.2-0.2C11,32.8,5,26.8,5,19.9
		C5,11.7,13.6,5,24.2,5c10.6,0,19.2,6.7,19.2,14.9C43.5,26.1,38.5,31.7,31,33.9z"/>
	<circle cx="14.2" cy="20.3" r="3.7"/>
	<circle cx="24.2" cy="20.3" r="3.7"/>
	<circle cx="34.3" cy="20.3" r="3.7"/>
</g>
</svg>
